<svg width="162" height="39" viewBox="0 0 162 39" fill="none" xmlns="http://www.w3.org/2000/svg">
<g clip-path="url(#clip0_816_7194)">
<path d="M50.2012 24.8215C52.4438 24.8215 53.6968 25.1413 53.7332 26.6486C53.7513 27.48 53.1884 28.4484 52.58 28.9234C51.209 29.9923 50.0014 30.1019 43.5548 30.1019H11.7486L17.8865 4.29376H7.26326C6.55504 4.29376 6.28265 4.49475 6.07382 5.34436L0.25373 29.5446C-0.844913 34.35 1.62477 38.7534 7.12706 38.7534H21.7181C25.4136 38.7534 30.3529 34.6971 32.3596 30.9424C32.4685 30.7414 32.5411 30.6044 32.6229 30.4308C32.6229 30.4308 32.6683 30.376 32.6773 30.4582C32.3596 31.8011 31.2427 36.5699 31.0612 37.3465C30.8251 38.3605 31.3517 38.7442 31.8329 38.7442H47.5226C60.8335 38.7442 66.0271 32.3676 66.4811 24.721C66.7353 20.4181 64.0295 17.6409 56.3844 17.6409H50.5099C48.4215 17.6409 46.2878 16.9466 46.2878 15.2474C46.2878 13.5482 48.6122 12.059 51.7629 12.059H66.0543C66.0543 12.059 67.3073 7.02532 67.5525 5.97472C67.8612 4.65005 67.4617 4.26636 66.4992 4.26636H48.8392C38.5791 4.26636 33.9757 11.1729 33.9757 16.097C33.9757 21.0211 37.9254 24.8215 48.1037 24.8215H50.1921H50.2012Z" fill="#003478"/>
<path d="M57.1387 0.000102426H85.5672L70.9489 7.55527C70.9489 7.55527 71.5391 5.07951 71.7116 4.33953C71.8932 3.55386 71.648 2.96918 70.5494 2.74079C69.4507 2.52154 57.1478 -0.0090332 57.1478 -0.0090332L57.1387 0.000102426Z" fill="#E6003F"/>
<path d="M107.004 17.385H111.226V35.6563H119.389V38.9908H107.004V17.385Z" fill="#9EA3A6"/>
<path d="M122.666 16.2615H126.706V20.5369H122.666V16.2615ZM122.666 23.3873H126.706V39.0001H122.666V23.3873Z" fill="#9EA3A6"/>
<path d="M130.058 23.3872H133.88V25.5066H133.944C135.206 23.716 136.922 23.0217 139.038 23.0217C142.715 23.0217 144.313 25.6254 144.313 29.1426V38.9908H140.273V30.6591C140.273 28.7498 140.245 26.1735 137.649 26.1735C134.725 26.1735 134.089 29.3527 134.089 31.3534V38.9908H130.049V23.3872H130.058Z" fill="#9EA3A6"/>
<path d="M147.6 16.2615H151.64V29.6269H151.704L156.525 23.3873H161.283L155.499 30.3578L162.009 39.0001H156.888L151.704 31.4266H151.64V39.0001H147.6V16.2615Z" fill="#9EA3A6"/>
<path d="M95.8457 29.7457V26.3838H103.845V29.7457H95.8457Z" fill="#E96600"/>
<path d="M77.5684 38.26V17.8784H93.4306V22.0169H83.334V26.3197H91.6237V29.8004H83.334V34.1124H93.7121V38.26H77.5684Z" fill="#E96600"/>
</g>
<defs>
<clipPath id="clip0_816_7194">
<rect width="162" height="39" fill="white"/>
</clipPath>
</defs>
</svg>
