<svg width="26" height="26" viewBox="0 0 26 26" fill="none" xmlns="http://www.w3.org/2000/svg">
<path d="M13.0026 19.3083C13.3077 19.3083 13.5635 19.2051 13.7699 18.9987C13.9763 18.7923 14.0795 18.5365 14.0795 18.2314C14.0795 17.9263 13.9763 17.6705 13.7699 17.4641C13.5635 17.2577 13.3077 17.1545 13.0026 17.1545C12.6974 17.1545 12.4417 17.2577 12.2353 17.4641C12.0289 17.6705 11.9257 17.9263 11.9257 18.2314C11.9257 18.5365 12.0289 18.7923 12.2353 18.9987C12.4417 19.2051 12.6974 19.3083 13.0026 19.3083ZM12.0026 14.4365H14.0025V6.43652H12.0026V14.4365ZM13.0048 25.6673C11.2529 25.6673 9.60618 25.3348 8.06467 24.6699C6.52314 24.005 5.18223 23.1027 4.04194 21.9629C2.90163 20.8231 1.99888 19.4828 1.3337 17.942C0.668527 16.4011 0.335938 14.7548 0.335938 13.0029C0.335938 11.2509 0.668382 9.60423 1.33327 8.06272C1.99816 6.52118 2.90049 5.18028 4.04027 4.03999C5.18007 2.89968 6.52039 1.99693 8.06124 1.33175C9.60206 0.666575 11.2484 0.333984 13.0003 0.333984C14.7522 0.333984 16.399 0.66643 17.9405 1.33132C19.482 1.99621 20.8229 2.89854 21.9632 4.03832C23.1035 5.17812 24.0063 6.51844 24.6714 8.05929C25.3366 9.60011 25.6692 11.2465 25.6692 12.9984C25.6692 14.7503 25.3368 16.397 24.6719 17.9385C24.007 19.4801 23.1047 20.821 21.9649 21.9613C20.8251 23.1016 19.4847 24.0043 17.9439 24.6695C16.4031 25.3347 14.7567 25.6673 13.0048 25.6673Z" fill="#0A1E5A"/>
</svg>
