<svg width="51" height="60" viewBox="0 0 51 60" fill="none" xmlns="http://www.w3.org/2000/svg">
<g clip-path="url(#clip0_816_8495)">
<path d="M48.3447 26.1624H2.65535C1.18913 26.1624 0 27.3324 0 28.7752V56.3929C0 57.8356 1.18913 59.0057 2.65535 59.0057H48.3447C49.8109 59.0057 51 57.8356 51 56.3929V28.7752C51 27.3324 49.8109 26.1624 48.3447 26.1624ZM25.7396 40.7942C25.7626 40.8737 26.7902 47.0706 27.3616 50.9956H23.6326C24.2041 47.065 25.2316 40.8737 25.2547 40.7942C15.2048 42.555 15.3491 34.9153 15.3491 34.9153C24.0655 33.6203 25.3008 39.1015 25.4683 40.4534C25.4856 40.4534 25.5029 40.4534 25.5202 40.4534C25.6876 39.1015 26.9229 33.6203 35.6394 34.9153C35.6394 34.9153 35.7837 42.5493 25.7338 40.7942H25.7396Z" fill="#EC6800"/>
<path d="M14.9575 0C12.8968 0 11.2285 1.64154 11.2285 3.66932V16.9947H18.6808V3.66932C18.6808 1.64154 17.0126 0 14.9518 0H14.9575Z" fill="#444444"/>
<path d="M36.0454 0C33.9847 0 32.3164 1.64154 32.3164 3.66932V16.9947H39.7687V3.66932C39.7687 1.64154 38.1004 0 36.0397 0H36.0454Z" fill="#444444"/>
<path d="M45.2512 16.4381C45.2512 15.3191 44.3276 14.416 43.1962 14.416H7.80501C6.66783 14.416 5.75 15.3248 5.75 16.4381V24.322H45.2512V16.4381Z" fill="#EC6800"/>
</g>
<defs>
<clipPath id="clip0_816_8495">
<rect width="51" height="60" fill="white"/>
</clipPath>
</defs>
</svg>
