<svg width="61" height="59" viewBox="0 0 61 59" fill="none" xmlns="http://www.w3.org/2000/svg">
<g clip-path="url(#clip0_816_8529)">
<path d="M21.9658 32.3048C21.6328 32.3048 21.3131 32.1324 21.1399 31.8207L11.8224 14.9854L2.49825 31.8207C2.24516 32.2783 1.67239 32.444 1.21284 32.1921C0.753296 31.9401 0.593453 31.3699 0.839878 30.919L10.9832 12.5917C11.1497 12.2933 11.4694 12.1077 11.8091 12.1077C12.1488 12.1077 12.4684 12.2933 12.6349 12.5917L22.7783 30.919C23.0314 31.3765 22.8649 31.9467 22.4053 32.1921C22.2588 32.2716 22.1056 32.3114 21.9524 32.3114L21.9658 32.3048Z" fill="#444444"/>
<path d="M11.815 42.0785C18.342 42.0785 23.6301 36.8138 23.6301 30.3157H0C0 36.8138 5.28813 42.0785 11.815 42.0785Z" fill="#EC6800"/>
<path d="M59.3282 20.5949C58.9952 20.5949 58.6756 20.4225 58.5024 20.1109L49.1849 3.27551L39.8674 20.1109C39.6143 20.5684 39.0415 20.7341 38.582 20.4822C38.1224 20.2302 37.9626 19.66 38.209 19.2091L48.359 0.868563C48.5255 0.570181 48.8452 0.384521 49.1849 0.384521C49.5246 0.384521 49.8442 0.570181 50.0107 0.868563L60.1541 19.1958C60.4072 19.6533 60.2407 20.2236 59.7811 20.4689C59.6346 20.5485 59.4814 20.5883 59.3282 20.5883V20.5949Z" fill="#444444"/>
<path d="M49.185 30.362C55.7119 30.362 61 25.0972 61 18.5991H37.3633C37.3633 25.0972 42.6514 30.362 49.1783 30.362H49.185Z" fill="#EC6800"/>
<path d="M32.2163 10.3835V52.82H28.793V10.3835C29.3058 10.6554 29.8919 10.7985 30.5046 10.7985C31.1173 10.7985 31.7034 10.6554 32.2163 10.3835Z" fill="#444444"/>
<path d="M19.3603 52.3625H41.6384C44.682 52.3625 47.1529 54.8225 47.1529 57.8528V58.9999H13.8457V57.8528C13.8457 54.8225 16.3166 52.3625 19.3603 52.3625Z" fill="#444444"/>
<path d="M49.0446 0.0598065L11.128 11.709C10.3863 11.9369 9.97068 12.7201 10.1995 13.4585L10.2015 13.4648C10.4304 14.2031 11.2171 14.617 11.9587 14.3891L49.8753 2.73988C50.6169 2.51204 51.0326 1.72879 50.8037 0.990461L50.8017 0.984125C50.5729 0.245792 49.7862 -0.168039 49.0446 0.0598065Z" fill="#444444"/>
<path d="M30.5032 11.2323C32.7249 11.2323 34.5259 9.43923 34.5259 7.22736C34.5259 5.01549 32.7249 3.22241 30.5032 3.22241C28.2815 3.22241 26.4805 5.01549 26.4805 7.22736C26.4805 9.43923 28.2815 11.2323 30.5032 11.2323Z" fill="#EC6800"/>
</g>
<defs>
<clipPath id="clip0_816_8529">
<rect width="61" height="59" fill="white"/>
</clipPath>
</defs>
</svg>
