<svg width="343" height="115" viewBox="0 0 343 115" fill="none" xmlns="http://www.w3.org/2000/svg">
<g clip-path="url(#clip0_1218_4168)">
<path d="M107.064 71.5569V11.4165H140.105V20.6524H119.721V35.4898H138.512V44.747H119.721V62.3209H140.773V71.5782H107.064V71.5569Z" fill="#C9CACA"/>
<path d="M168.627 35.4897V44.747H148.07V35.4897H168.627Z" fill="#C9CACA"/>
<path d="M178.355 71.5569V11.4165H191.012V61.5727H209.976V71.5782H178.355V71.5569Z" fill="#C9CACA"/>
<path d="M225.559 11.4165V20.6524H213.742V11.4165H225.559ZM225.559 71.5569H213.742V29.5035H225.559V71.5782V71.5569Z" fill="#C9CACA"/>
<path d="M245.686 33.7367H245.859C247.042 31.8126 248.463 30.5726 250.056 29.8243C251.735 28.9905 253.672 28.6484 255.846 28.6484C261.464 28.6484 266.415 31.9836 266.415 37.8202V71.557H254.598V42.5665C254.598 38.8251 253.93 35.8961 250.142 35.8961C246.354 35.8961 245.686 38.8037 245.686 42.5665V71.557H233.869V29.5036H245.686V33.7581V33.7367Z" fill="#C9CACA"/>
<path d="M273.367 71.5569V11.4165H285.184V47.2271H285.357L296.011 29.4821H308.345L296.356 48.2319L309.701 71.5569H296.356L285.378 48.6595H285.206V71.5569H273.389H273.367Z" fill="#C9CACA"/>
<path d="M10.5039 71.5359V11.3955H23.1606V61.5303H42.124V71.5359H10.5039Z" fill="#C9CACA"/>
<path d="M63.4974 72.5192C47.8057 72.5192 44.8783 63.3474 45.5456 52.9356H58.2023C58.2023 58.6867 58.4606 63.5184 65.4131 63.5184C69.6966 63.5184 71.7845 60.7605 71.7845 56.677C71.7845 45.8376 46.299 45.1749 46.299 27.2803C46.299 17.8733 50.8192 10.3691 66.2526 10.3691C78.5864 10.3691 84.6995 15.8637 83.86 28.4561H71.5262C71.5262 23.9665 70.7728 19.3699 65.6499 19.3699C61.5386 19.3699 59.1063 21.6147 59.1063 25.7837C59.1063 37.2003 84.5919 36.1955 84.5919 55.1163C84.5919 70.7019 73.0975 72.5192 63.4544 72.5192H63.4974Z" fill="#C9CACA"/>
<path d="M10.5039 84.6841V96.849H106.914V84.6841" stroke="#231916" stroke-width="0.25"/>
<path d="M44.857 113.119C45.1584 113.311 45.5028 113.482 45.8472 113.589C46.1916 113.696 46.579 113.76 46.9665 113.76C47.4615 113.76 47.8705 113.653 48.2149 113.461C48.5593 113.268 48.8176 112.969 49.0113 112.563C49.2051 112.157 49.3557 111.708 49.4418 111.13C49.5279 110.553 49.5925 109.933 49.614 109.249C49.5494 109.399 49.4418 109.57 49.2912 109.762C49.162 109.933 48.9898 110.104 48.7746 110.254C48.5808 110.404 48.3225 110.532 48.0642 110.639C47.7844 110.746 47.4831 110.788 47.1387 110.788C46.7297 110.788 46.3207 110.703 45.9548 110.553C45.5889 110.404 45.2445 110.168 44.9646 109.89C44.6848 109.591 44.448 109.249 44.2974 108.843C44.1252 108.437 44.0391 107.966 44.0391 107.432V107.068C44.0391 106.534 44.1252 106.064 44.2758 105.636C44.448 105.208 44.6633 104.845 44.9431 104.546C45.2229 104.246 45.5673 104.011 45.9548 103.84C46.3422 103.669 46.7727 103.583 47.2248 103.583C47.6768 103.583 48.1073 103.669 48.4947 103.84C48.9037 104.011 49.2481 104.289 49.5495 104.652C49.8508 105.016 50.0876 105.465 50.2598 106.021C50.432 106.577 50.5181 107.218 50.5181 107.966V108.415C50.5181 109.612 50.432 110.596 50.3028 111.408C50.1522 112.221 49.9369 112.862 49.6355 113.354C49.3342 113.846 48.9683 114.188 48.5163 114.401C48.0642 114.615 47.5261 114.701 46.9234 114.701C46.4714 114.701 46.0409 114.637 45.6319 114.508C45.2229 114.38 44.814 114.209 44.448 113.974L44.8355 113.097L44.857 113.119ZM49.5064 107.304C49.5064 106.897 49.4418 106.534 49.3342 106.192C49.2266 105.85 49.0759 105.572 48.8822 105.315C48.6885 105.08 48.4517 104.888 48.1719 104.738C47.892 104.61 47.5907 104.546 47.2678 104.546C46.9449 104.546 46.6221 104.61 46.3422 104.717C46.0624 104.824 45.8256 105.016 45.6104 105.23C45.4167 105.444 45.2445 105.721 45.1368 106.042C45.0292 106.363 44.9646 106.726 44.9646 107.132V107.346C44.9646 107.752 45.0292 108.116 45.1584 108.437C45.2875 108.757 45.4597 109.014 45.6534 109.228C45.8687 109.441 46.1055 109.612 46.3853 109.719C46.6651 109.826 46.9449 109.89 47.2463 109.89C47.5261 109.89 47.8059 109.826 48.0858 109.719C48.3656 109.591 48.6024 109.42 48.8176 109.206C49.0329 108.992 49.2051 108.736 49.3342 108.437C49.4634 108.137 49.5279 107.838 49.5279 107.475V107.282L49.5064 107.304Z" fill="#231916"/>
<path d="M52.0684 113.503H53.446V115H52.0684V113.503Z" fill="#231916"/>
<path d="M60.5047 111.323C60.5047 110.446 60.311 109.826 59.9236 109.42C59.5361 109.035 58.998 108.821 58.2877 108.821C57.8787 108.821 57.4912 108.907 57.1684 109.078C56.8455 109.249 56.5657 109.441 56.3504 109.676H55.4464L55.7477 103.754H60.7846V104.716H56.5872L56.4365 108.629C56.6518 108.394 56.9531 108.223 57.319 108.073C57.685 107.923 58.0724 107.859 58.4814 107.859C58.9549 107.859 59.3854 107.945 59.7514 108.116C60.1173 108.287 60.4186 108.522 60.6769 108.821C60.9137 109.121 61.1074 109.484 61.2151 109.89C61.3442 110.297 61.3873 110.745 61.3873 111.237V111.451C61.3873 111.836 61.3227 112.221 61.2151 112.605C61.1074 112.99 60.9137 113.332 60.6554 113.632C60.3971 113.931 60.0527 114.188 59.6222 114.38C59.1917 114.572 58.6751 114.679 58.0724 114.679C57.4051 114.679 56.824 114.572 56.3074 114.359C55.7908 114.145 55.3387 113.845 54.8867 113.482L55.3818 112.627C55.8553 113.033 56.3074 113.311 56.7379 113.482C57.1684 113.653 57.6204 113.739 58.0724 113.739C58.5029 113.739 58.8688 113.674 59.1702 113.525C59.4715 113.375 59.7083 113.204 59.902 112.969C60.0958 112.755 60.2249 112.499 60.311 112.242C60.3971 111.985 60.4402 111.729 60.4402 111.472V111.28L60.5047 111.323Z" fill="#231916"/>
<path d="M64.94 114.68C64.2512 114.68 63.67 114.466 63.2395 114.059C62.809 113.653 62.5938 113.076 62.5938 112.371V112.05C62.5938 111.387 62.809 110.853 63.2395 110.446C63.67 110.04 64.3157 109.826 65.1552 109.826H67.2216V109.078C67.2216 108.479 67.0709 108.03 66.7911 107.731C66.4898 107.41 66.0593 107.261 65.4996 107.261C65.1122 107.261 64.7247 107.346 64.3588 107.496C63.9929 107.646 63.6485 107.838 63.3471 108.095L62.8951 107.325C63.2395 107.068 63.6269 106.833 64.0359 106.662C64.4664 106.47 64.94 106.384 65.4996 106.384C66.3176 106.384 66.9633 106.598 67.4369 107.047C67.9104 107.496 68.1257 108.137 68.1257 108.95V114.594H67.2216V113.611C67.157 113.739 67.0494 113.867 66.8987 114.017C66.7481 114.145 66.5974 114.273 66.4037 114.38C65.9947 114.615 65.4996 114.722 64.9184 114.722L64.94 114.68ZM67.2216 110.682H65.1767C64.5956 110.682 64.1651 110.81 63.9068 111.066C63.6485 111.323 63.5193 111.665 63.5193 112.093V112.328C63.5193 112.584 63.5624 112.819 63.6485 112.991C63.7346 113.162 63.8637 113.333 64.0144 113.439C64.1651 113.546 64.3373 113.653 64.5095 113.696C64.7032 113.76 64.8754 113.782 65.0691 113.782C65.3489 113.782 65.6288 113.739 65.8655 113.653C66.1023 113.568 66.3176 113.461 66.5328 113.311C66.7265 113.162 66.8987 112.991 67.0279 112.798C67.157 112.584 67.2216 112.328 67.2216 112.028V110.66V110.682Z" fill="#231916"/>
<path d="M59.9468 95.0742C58.9352 95.0742 58.0957 95.8866 58.0957 96.9129C58.0957 97.9391 58.9352 98.7515 59.9468 98.7515C60.9585 98.7515 61.798 97.9391 61.798 96.9129C61.798 95.8866 60.9585 95.0742 59.9468 95.0742Z" fill="#231916"/>
<path fill-rule="evenodd" clip-rule="evenodd" d="M319.989 82.6528H0.257812V0.470215H319.989V82.6528Z" stroke="#231916" stroke-width="0.25"/>
<path d="M320.011 10.3906H0.0644531" stroke="#231916" stroke-width="0.25"/>
<path d="M320.011 72.4551H0.0644531" stroke="#231916" stroke-width="0.25"/>
<path d="M310.088 0.470215V82.6528" stroke="#231916" stroke-width="0.25"/>
<path d="M106.914 0.427734V82.653" stroke="#231916" stroke-width="0.25"/>
<path d="M330.99 10.7966V1.32553L328.622 2.9076L328.191 2.07381L331.226 0H331.937V10.7966H330.99Z" fill="#231916"/>
<path d="M337.641 10.9036C336.952 10.9036 336.371 10.6898 335.941 10.2836C335.51 9.87741 335.295 9.30016 335.295 8.59464V8.27395C335.295 7.61119 335.51 7.0767 335.941 6.67049C336.371 6.26428 337.017 6.05049 337.856 6.05049H339.923V5.30221C339.923 4.70358 339.772 4.25462 339.471 3.9553C339.169 3.65599 338.739 3.48496 338.179 3.48496C337.792 3.48496 337.404 3.57047 337.038 3.72013C336.673 3.86979 336.328 4.0622 336.027 4.31875L335.575 3.54909C335.919 3.29254 336.307 3.05737 336.716 2.88633C337.146 2.69392 337.62 2.6084 338.179 2.6084C338.997 2.6084 339.643 2.82219 340.116 3.27116C340.59 3.72013 340.805 4.36151 340.805 5.17393V10.8181H339.901V9.83465C339.837 9.96292 339.729 10.0912 339.578 10.2409C339.428 10.3905 339.277 10.4974 339.083 10.6043C338.674 10.8395 338.179 10.9464 337.598 10.9464L337.641 10.9036ZM339.944 6.90567H337.899C337.318 6.90567 336.888 7.03394 336.629 7.2905C336.371 7.54705 336.242 7.88912 336.242 8.31671V8.55188C336.242 8.80844 336.285 9.04361 336.371 9.21464C336.457 9.38568 336.586 9.55672 336.737 9.66361C336.888 9.77051 337.06 9.87741 337.232 9.92017C337.426 9.9843 337.598 10.0057 337.792 10.0057C338.072 10.0057 338.351 9.96292 338.588 9.87741C338.825 9.79189 339.04 9.68499 339.277 9.53534C339.471 9.38568 339.643 9.21464 339.772 9.02223C339.901 8.82981 339.966 8.55188 339.966 8.25257V6.88429L339.944 6.90567Z" fill="#231916"/>
<path d="M330.99 82.4177V72.9466L328.622 74.5287L328.191 73.6949L331.226 71.6211H331.937V82.4177H330.99Z" fill="#231916"/>
<path d="M337.641 82.5247C336.952 82.5247 336.371 82.3109 335.941 81.9047C335.51 81.4985 335.295 80.9213 335.295 80.2157V79.895C335.295 79.2323 335.51 78.6978 335.941 78.2916C336.371 77.8854 337.017 77.6716 337.856 77.6716H339.923V76.9233C339.923 76.3247 339.772 75.8757 339.471 75.5764C339.169 75.2771 338.739 75.106 338.179 75.106C337.792 75.106 337.404 75.1916 337.038 75.3412C336.673 75.4909 336.328 75.6833 336.027 75.9398L335.575 75.1702C335.919 74.9136 336.307 74.6785 336.716 74.5074C337.146 74.315 337.62 74.2295 338.179 74.2295C338.997 74.2295 339.643 74.4433 340.116 74.8922C340.59 75.3412 340.805 75.9826 340.805 76.795V82.4392H339.901V81.4557C339.837 81.584 339.729 81.7123 339.578 81.862C339.428 82.0116 339.277 82.1185 339.083 82.2254C338.674 82.4606 338.179 82.5675 337.598 82.5675L337.641 82.5247ZM339.944 78.5268H337.899C337.318 78.5268 336.888 78.655 336.629 78.9116C336.371 79.1681 336.242 79.5102 336.242 79.9378V80.173C336.242 80.4295 336.285 80.6647 336.371 80.8357C336.457 81.0068 336.586 81.1778 336.737 81.2847C336.888 81.3916 337.06 81.4985 337.232 81.5413C337.426 81.6054 337.598 81.6268 337.792 81.6268C338.072 81.6268 338.351 81.584 338.588 81.4985C338.825 81.413 339.04 81.3061 339.277 81.1564C339.471 81.0068 339.643 80.8357 339.772 80.6433C339.901 80.4509 339.966 80.173 339.966 79.8737V78.5054L339.944 78.5268Z" fill="#231916"/>
<path d="M335.487 33.6724C335.186 33.48 334.863 33.309 334.497 33.2021C334.153 33.0952 333.787 33.031 333.399 33.031C332.947 33.031 332.56 33.1379 332.237 33.3303C331.914 33.5228 331.656 33.8221 331.44 34.2283C331.225 34.6345 331.075 35.0835 330.967 35.6607C330.859 36.2166 330.795 36.8579 330.752 37.5848C330.816 37.4352 330.924 37.2642 331.075 37.0717C331.204 36.9007 331.376 36.7297 331.591 36.58C331.785 36.4304 332.022 36.3021 332.301 36.2166C332.581 36.131 332.883 36.0669 333.227 36.0669C333.636 36.0669 334.045 36.1524 334.411 36.2807C334.777 36.4304 335.121 36.6442 335.401 36.9221C335.681 37.2 335.918 37.5635 336.09 37.9697C336.262 38.3759 336.348 38.8462 336.348 39.3807V39.7442C336.348 40.2787 336.262 40.749 336.111 41.1766C335.939 41.6042 335.724 41.9676 335.444 42.2669C335.164 42.5663 334.82 42.8014 334.432 42.9511C334.045 43.1007 333.615 43.1863 333.162 43.1863C332.71 43.1863 332.258 43.1007 331.871 42.9297C331.462 42.7587 331.118 42.4807 330.816 42.1387C330.515 41.7966 330.278 41.3262 330.106 40.7704C329.934 40.2145 329.848 39.5731 329.848 38.8249V38.4614C329.848 37.3069 329.934 36.3235 330.106 35.511C330.278 34.6986 330.515 34.0359 330.816 33.5441C331.118 33.031 331.505 32.6676 331.936 32.4324C332.388 32.1972 332.883 32.0903 333.442 32.0903C333.894 32.0903 334.325 32.1545 334.755 32.2827C335.186 32.411 335.573 32.6034 335.961 32.8172L335.509 33.6724H335.487ZM330.859 39.5518C330.859 39.958 330.924 40.3214 331.032 40.6635C331.139 40.9842 331.29 41.2835 331.484 41.5187C331.677 41.7538 331.914 41.9463 332.194 42.0745C332.474 42.2028 332.775 42.2669 333.098 42.2669C333.421 42.2669 333.744 42.2028 334.023 42.0959C334.303 41.989 334.54 41.818 334.755 41.6042C334.949 41.3904 335.121 41.1338 335.229 40.8131C335.337 40.4925 335.401 40.129 335.401 39.7228V39.509C335.401 39.1028 335.336 38.7607 335.207 38.44C335.078 38.1193 334.906 37.8628 334.712 37.649C334.497 37.4352 334.26 37.2642 333.98 37.1573C333.701 37.0504 333.421 36.9862 333.119 36.9862C332.818 36.9862 332.56 37.0504 332.28 37.1573C332 37.2855 331.763 37.4352 331.57 37.649C331.354 37.8628 331.182 38.1193 331.053 38.3973C330.924 38.6966 330.859 39.0173 330.859 39.338V39.5304V39.5518Z" fill="#231916"/>
<path d="M339.792 43.1434C339.103 43.1434 338.522 42.9296 338.091 42.5234C337.661 42.1172 337.445 41.5399 337.445 40.8344V40.5137C337.445 39.8509 337.661 39.3165 338.091 38.9102C338.522 38.504 339.167 38.2902 340.007 38.2902H342.073V37.542C342.073 36.9433 341.923 36.4944 341.621 36.1951C341.32 35.8957 340.889 35.7247 340.33 35.7247C339.942 35.7247 339.555 35.8102 339.189 35.9599C338.823 36.1095 338.479 36.3019 338.177 36.5585L337.725 35.7888C338.07 35.5323 338.457 35.2971 338.866 35.1261C339.296 34.9337 339.77 34.8481 340.33 34.8481C341.148 34.8481 341.793 35.0619 342.267 35.5109C342.74 35.9599 342.956 36.6013 342.956 37.4137V43.0578H342.052V42.0744C341.987 42.2027 341.879 42.331 341.729 42.4806C341.578 42.6303 341.427 42.7372 341.234 42.8441C340.825 43.0792 340.33 43.1861 339.748 43.1861L339.792 43.1434ZM342.095 39.1454H340.05C339.469 39.1454 339.038 39.2737 338.78 39.5302C338.522 39.7868 338.392 40.1289 338.392 40.5565V40.7916C338.392 41.0482 338.435 41.2834 338.522 41.4544C338.608 41.6254 338.737 41.7965 338.887 41.9034C339.038 42.0103 339.21 42.1172 339.383 42.1599C339.576 42.2241 339.748 42.2454 339.942 42.2454C340.222 42.2454 340.502 42.2027 340.739 42.1172C340.975 42.0316 341.191 41.9247 341.427 41.7751C341.621 41.6254 341.793 41.4544 341.923 41.262C342.052 41.0696 342.116 40.7916 342.116 40.4923V39.124L342.095 39.1454Z" fill="#231916"/>
<path d="M10.5039 0.470215V82.6528" stroke="#231916" stroke-width="0.25"/>
</g>
<defs>
<clipPath id="clip0_1218_4168">
<rect width="343" height="115" fill="white"/>
</clipPath>
</defs>
</svg>
