<svg width="464" height="110" viewBox="0 0 464 110" fill="none" xmlns="http://www.w3.org/2000/svg">
<g clip-path="url(#clip0_1218_4112)">
<path d="M143.788 70.0093C150.211 70.0093 153.8 70.9112 153.904 75.1627C153.956 77.5076 152.344 80.2389 150.601 81.5788C146.674 84.5935 143.216 84.9027 124.751 84.9027H33.6521L51.2322 12.1105H20.8051C18.7766 12.1105 17.9964 12.6774 17.3983 15.0737L0.728422 83.3309C-2.41831 96.8845 4.65534 109.304 20.415 109.304H62.2067C72.7912 109.304 86.9385 97.8636 92.6858 87.2733C92.9979 86.7064 93.2059 86.3199 93.44 85.8304C93.44 85.8304 93.57 85.6757 93.596 85.9076C92.6858 89.6954 89.4871 103.146 88.967 105.336C88.2908 108.196 89.7992 109.278 91.1775 109.278H136.116C174.241 109.278 189.116 91.293 190.417 69.7259C191.145 57.5895 183.395 49.7563 161.498 49.7563H144.672C138.691 49.7563 132.579 47.798 132.579 43.0053C132.579 38.2126 139.237 34.0126 148.261 34.0126H189.194C189.194 34.0126 192.783 19.8149 193.485 16.8517C194.37 13.1154 193.225 12.0332 190.469 12.0332H139.887C110.5 12.0332 97.3149 31.5132 97.3149 45.4017C97.3149 59.2902 108.628 70.0093 137.78 70.0093H143.762H143.788Z" fill="#003478"/>
<path d="M163.656 -0.000111748H245.081L203.211 21.3093C203.211 21.3093 204.902 14.3264 205.396 12.2393C205.916 10.0233 205.214 8.37422 202.067 7.73004C198.92 7.11162 163.682 -0.0258789 163.682 -0.0258789L163.656 -0.000111748Z" fill="#E6003F"/>
<path d="M306.48 49.0347H318.573V100.569H341.953V109.974H306.48V49.0347Z" fill="#9EA3A6"/>
<path d="M351.342 45.8657H362.914V57.9248H351.342V45.8657ZM351.342 65.9641H362.914V110H351.342V65.9641Z" fill="#9EA3A6"/>
<path d="M372.51 65.9638H383.459V71.9418H383.641C387.256 66.8914 392.171 64.9331 398.23 64.9331C408.763 64.9331 413.34 72.2767 413.34 82.1971V109.974H401.767V86.4745C401.767 81.0891 401.689 73.8228 394.251 73.8228C385.878 73.8228 384.057 82.7897 384.057 88.4328V109.974H372.484V65.9638H372.51Z" fill="#9EA3A6"/>
<path d="M422.754 45.8657H434.327V83.5631H434.509L448.318 65.9641H461.945L445.379 85.6245L464.026 110H449.358L434.509 88.6392H434.327V110H422.754V45.8657Z" fill="#9EA3A6"/>
<path d="M274.52 83.8978V74.4155H297.431V83.8978H274.52Z" fill="#E96600"/>
<path d="M222.17 107.913V50.4263H267.602V62.0988H238.684V74.2351H262.427V84.0524H238.684V96.2145H268.409V107.913H222.17Z" fill="#E96600"/>
</g>
<defs>
<clipPath id="clip0_1218_4112">
<rect width="464" height="110" fill="white"/>
</clipPath>
</defs>
</svg>
