<svg width="245" height="110" viewBox="0 0 245 110" fill="none" xmlns="http://www.w3.org/2000/svg">
<path d="M143.019 70.0105C149.414 70.0105 152.967 70.9099 153.07 75.1713C153.115 77.5158 151.516 80.2437 149.769 81.5856C145.861 84.5936 142.427 84.918 124.058 84.918H33.4685L50.9795 12.1057H20.709C18.6811 12.1057 17.9262 12.6807 17.3193 15.0842L0.726078 83.3255C-2.39718 96.8912 4.63385 109.292 20.3094 109.292H61.8591C72.3835 109.292 86.4751 97.8496 92.1888 87.2772C92.4996 86.7022 92.7068 86.3188 92.9437 85.8322C92.9437 85.8322 93.0621 85.6847 93.1065 85.8912C92.2036 89.6807 89.0063 103.114 88.4882 105.311C87.8221 108.171 89.3171 109.248 90.6937 109.248H135.396C173.305 109.248 188.107 91.2732 189.41 69.7008C190.135 57.5802 182.438 49.7357 160.649 49.7357H143.922C137.972 49.7357 131.888 47.7893 131.888 42.9823C131.888 38.1754 138.505 33.9877 147.49 33.9877H188.196C188.196 33.9877 191.748 19.788 192.459 16.8242C193.332 13.0936 192.207 12.0024 189.469 12.0024H139.141C109.922 12.0024 96.7922 31.481 96.7922 45.3711C96.7922 59.2612 108.042 69.981 137.054 69.981H142.99L143.019 70.0105Z" fill="#003478"/>
<path d="M162.795 0H243.792L202.139 21.307C202.139 21.307 203.812 14.3324 204.315 12.2534C204.833 10.0416 204.137 8.37533 200.999 7.74129C197.876 7.10724 162.81 0 162.81 0L162.795 0Z" fill="#E6003F"/>
</svg>
