<svg width="200" height="93" viewBox="0 0 200 93" fill="none" xmlns="http://www.w3.org/2000/svg">
<g clip-path="url(#clip0_1218_4532)">
<path d="M86.8015 87.0597C87.764 87.0597 88.2946 87.1961 88.307 87.841C88.307 88.2006 88.0725 88.6099 87.8134 88.8083C87.2334 89.2672 86.7151 89.3168 83.9632 89.3168H70.4011L73.0173 78.3165H68.4884C68.1799 78.3165 68.0688 78.4033 67.9824 78.763L65.502 89.0687C65.0331 91.115 66.082 92.9877 68.439 92.9877H74.6586C76.2381 92.9877 78.3483 91.2638 79.1998 89.664C79.2492 89.5772 79.2738 89.5152 79.3109 89.4408C79.3109 89.4408 79.3232 89.416 79.3355 89.4408C79.1998 90.0113 78.7185 92.0451 78.6445 92.38C78.5458 92.814 78.7679 92.9753 78.9777 92.9753H85.6661C91.3427 92.9753 93.564 90.2593 93.7491 86.9977C93.8601 85.1622 92.7001 83.9841 89.4423 83.9841H86.9372C86.0487 83.9841 85.1355 83.6864 85.1355 82.9671C85.1355 82.2478 86.1227 81.6029 87.4678 81.6029H93.564C93.564 81.6029 94.0946 79.4575 94.2057 79.011C94.3414 78.4529 94.1686 78.2793 93.7614 78.2793H86.2215C81.8406 78.2793 79.8785 81.2185 79.8785 83.3144C79.8785 85.4103 81.5568 87.0349 85.913 87.0349H86.8015V87.0597Z" fill="#003478"/>
<path d="M89.7623 76.4814H101.893L95.6487 79.7059C95.6487 79.7059 95.8955 78.6517 95.9695 78.3417C96.0436 78.0068 95.9449 77.7588 95.4759 77.6596C95.007 77.5604 89.75 76.4938 89.75 76.4938L89.7623 76.4814Z" fill="#E6003F"/>
<path d="M132.139 78.3047H114.135C112.777 78.3047 111.654 79.4208 111.654 80.785V90.5079C111.654 91.8721 112.765 92.9882 114.135 92.9882H132.139C133.509 92.9882 134.62 91.8721 134.62 90.5079V80.785C134.62 79.4084 133.509 78.3047 132.139 78.3047Z" fill="#E96600"/>
<path d="M114.147 78.751C113.036 78.751 112.123 79.6687 112.123 80.7848V90.5077C112.123 91.6239 113.036 92.5416 114.147 92.5416H132.151C133.262 92.5416 134.175 91.6239 134.175 90.5077V80.7848C134.175 79.6687 133.274 78.751 132.151 78.751H114.147ZM112.814 90.5077V80.7848C112.814 80.0407 113.419 79.4455 114.147 79.4455H132.151C132.892 79.4455 133.484 80.0531 133.484 80.7848V90.5077C133.484 91.2518 132.892 91.8471 132.151 91.8471H114.147C113.406 91.8471 112.814 91.2394 112.814 90.5077Z" fill="white"/>
<path d="M121.688 87.8909V86.5391H125.044V84.7532H121.688V83.4015H125.772V81.3428H118.973V89.9495H125.76V87.8909H121.688Z" fill="white"/>
<path d="M131.67 88.3867H128.955V89.0688H131.67V88.3867Z" fill="white"/>
<path d="M131.67 85.7451H128.955V86.4272H131.67V85.7451Z" fill="white"/>
<path d="M131.67 86.626H128.955V87.3081H131.67V86.626Z" fill="white"/>
<path d="M131.671 82.0249V81.3428H129.487C129.449 81.5412 129.375 81.8388 129.289 82.0125H131.671V82.0249Z" fill="white"/>
<path d="M131.67 87.5068H128.955V88.2013H131.67V87.5068Z" fill="white"/>
<path d="M131.67 84.8652H128.955V85.5473H131.67V84.8652Z" fill="white"/>
<path d="M131.67 89.2676H128.955V89.9497H131.67V89.2676Z" fill="white"/>
<path d="M129.177 82.2236C129.054 82.4469 128.893 82.6329 128.708 82.7941L128.572 82.9057H131.67V82.2236H129.177Z" fill="white"/>
<path d="M127.252 83.9844V84.6665H128.955H131.67V83.9844H127.252Z" fill="white"/>
<path d="M128.289 83.1035C127.98 83.2895 127.635 83.4012 127.252 83.4508V83.798H131.67V83.1159H128.289V83.1035Z" fill="white"/>
<path d="M103.608 78.3047H103.201V93.0006H103.608V78.3047Z" fill="#65686A"/>
<path d="M134.387 20.1894V35.7783L111.903 20.5863C110.249 19.4701 108.016 20.6607 108.016 22.6698V44.0378H113.742V28.4489L136.238 43.579C137.892 44.6951 140.113 43.5046 140.113 41.4955V20.1894H134.387Z" fill="#003478"/>
<path d="M103.917 20.1895H98.1914V44.0378H103.917V20.1895Z" fill="#003478"/>
<path d="M94.1442 44.0378V38.6183H77.0035C75.9916 38.6183 75.1771 37.7998 75.1771 36.7829V20.1895H69.4512V37.5394C69.4512 41.1234 72.3388 44.0254 75.9052 44.0254H94.1319L94.1442 44.0378Z" fill="#003478"/>
<path d="M172.691 20.1895H163.954L150.096 30.1108V20.1895H144.037V44.0378H150.096V34.811L163.769 44.0378H172.519C172.667 44.0378 172.741 43.8394 172.605 43.7526L156.39 32.4671L172.79 20.4871C172.914 20.4003 172.852 20.2019 172.704 20.2019L172.691 20.1895Z" fill="#003478"/>
<path d="M151.576 52.6326H182.859C186.709 52.4218 187.573 50.1275 187.573 47.3371V42.8105V42.6369V37.4158V21.5913V16.8911C187.573 14.0883 186.709 11.8064 182.859 11.5955H151.576V0H183.76C193.632 0 200 6.87052 200 17.4987V22.5586V41.6696V46.7294C200 57.3576 193.62 64.2282 183.76 64.2282H151.576V52.6326Z" fill="#003478"/>
<path d="M0 17.4987V46.7418C0 57.37 6.37996 64.2406 16.2399 64.2406H48.4235V52.645H17.1407C13.2906 52.4342 12.4267 50.1399 12.4267 47.3495V37.8002H41.4142V26.4775H12.4267V16.9283C12.4267 14.1255 13.2906 11.8436 17.1407 11.6328H48.4235V0H16.2399C6.37996 0 0 6.87052 0 17.4987Z" fill="#E96600"/>
<path d="M61.64 29.2432H49.0898V34.9975H61.64V29.2432Z" fill="#E96600"/>
<path d="M106.189 52.6328H98.291V64.2284H106.189V52.6328Z" fill="url(#paint0_linear_1218_4532)"/>
<path d="M127.919 52.6328H121.428V64.2284H127.919V52.6328Z" fill="url(#paint1_linear_1218_4532)"/>
<path d="M73.5718 52.6328H63.5762V64.2284H73.5718V52.6328Z" fill="url(#paint2_linear_1218_4532)"/>
<path d="M117.048 52.6328H109.854V64.2284H117.048V52.6328Z" fill="url(#paint3_linear_1218_4532)"/>
<path d="M84.4452 52.6328H75.1406V64.2284H84.4452V52.6328Z" fill="url(#paint4_linear_1218_4532)"/>
<path d="M138.78 52.6328H132.992V64.2284H138.78V52.6328Z" fill="url(#paint5_linear_1218_4532)"/>
<path d="M95.3161 52.6328H86.7148V64.2284H95.3161V52.6328Z" fill="url(#paint6_linear_1218_4532)"/>
<path d="M148.516 52.6328H143.889V64.2284H148.516V52.6328Z" fill="url(#paint7_linear_1218_4532)"/>
<path d="M62.3676 52.6328H51.6191V64.2284H62.3676V52.6328Z" fill="#E96600"/>
</g>
<defs>
<linearGradient id="paint0_linear_1218_4532" x1="140.557" y1="58.4244" x2="44.956" y2="58.4244" gradientUnits="userSpaceOnUse">
<stop offset="0.23" stop-color="#FED900"/>
<stop offset="0.67" stop-color="#F1942F"/>
<stop offset="0.89" stop-color="#E96600"/>
<stop offset="1" stop-color="#E96600"/>
</linearGradient>
<linearGradient id="paint1_linear_1218_4532" x1="140.555" y1="58.4244" x2="44.9546" y2="58.4244" gradientUnits="userSpaceOnUse">
<stop offset="0.23" stop-color="#FED900"/>
<stop offset="0.67" stop-color="#F1942F"/>
<stop offset="0.89" stop-color="#E96600"/>
<stop offset="1" stop-color="#E96600"/>
</linearGradient>
<linearGradient id="paint2_linear_1218_4532" x1="140.555" y1="58.4244" x2="44.9546" y2="58.4244" gradientUnits="userSpaceOnUse">
<stop offset="0.23" stop-color="#FED900"/>
<stop offset="0.67" stop-color="#F1942F"/>
<stop offset="0.89" stop-color="#E96600"/>
<stop offset="1" stop-color="#E96600"/>
</linearGradient>
<linearGradient id="paint3_linear_1218_4532" x1="140.556" y1="58.4244" x2="44.9556" y2="58.4244" gradientUnits="userSpaceOnUse">
<stop offset="0.23" stop-color="#FED900"/>
<stop offset="0.67" stop-color="#F1942F"/>
<stop offset="0.89" stop-color="#E96600"/>
<stop offset="1" stop-color="#E96600"/>
</linearGradient>
<linearGradient id="paint4_linear_1218_4532" x1="140.557" y1="58.4244" x2="44.9561" y2="58.4244" gradientUnits="userSpaceOnUse">
<stop offset="0.23" stop-color="#FED900"/>
<stop offset="0.67" stop-color="#F1942F"/>
<stop offset="0.89" stop-color="#E96600"/>
<stop offset="1" stop-color="#E96600"/>
</linearGradient>
<linearGradient id="paint5_linear_1218_4532" x1="140.557" y1="58.4244" x2="44.9561" y2="58.4244" gradientUnits="userSpaceOnUse">
<stop offset="0.23" stop-color="#FED900"/>
<stop offset="0.67" stop-color="#F1942F"/>
<stop offset="0.89" stop-color="#E96600"/>
<stop offset="1" stop-color="#E96600"/>
</linearGradient>
<linearGradient id="paint6_linear_1218_4532" x1="140.556" y1="58.4244" x2="44.9551" y2="58.4244" gradientUnits="userSpaceOnUse">
<stop offset="0.23" stop-color="#FED900"/>
<stop offset="0.67" stop-color="#F1942F"/>
<stop offset="0.89" stop-color="#E96600"/>
<stop offset="1" stop-color="#E96600"/>
</linearGradient>
<linearGradient id="paint7_linear_1218_4532" x1="139.878" y1="58.4244" x2="44.2774" y2="58.4244" gradientUnits="userSpaceOnUse">
<stop offset="0.23" stop-color="#FED900"/>
<stop offset="0.67" stop-color="#F1942F"/>
<stop offset="0.89" stop-color="#E96600"/>
<stop offset="1" stop-color="#E96600"/>
</linearGradient>
<clipPath id="clip0_1218_4532">
<rect width="200" height="93" fill="white"/>
</clipPath>
</defs>
</svg>
