<svg width="200" height="94" viewBox="0 0 200 94" fill="none" xmlns="http://www.w3.org/2000/svg">
<g clip-path="url(#clip0_1218_4489)">
<path d="M8.18165 83.9498H3.12211V87.2014H8.76165V89.7509H0V76.0303H8.47782V78.5798H3.12211V81.4249H8.18165V83.9498Z" fill="#003478"/>
<path d="M14.1301 89.7509L9.72461 76.0303H13.1305L14.7965 81.8314C15.2654 83.4572 15.6973 85.0214 16.0182 86.7334H16.0799C16.4254 85.0829 16.8573 83.4572 17.3263 81.893L19.0786 76.0303H22.3858L17.7582 89.7509H14.1301Z" fill="#003478"/>
<path d="M38.0695 89.3564C37.5018 89.6397 36.2184 89.9476 34.5401 89.9476C29.7891 89.9476 27.3457 86.9917 27.3457 83.0873C27.3457 78.407 30.6899 75.7959 34.8486 75.7959C36.4652 75.7959 37.6869 76.1161 38.2299 76.4117L37.6005 78.875C36.9712 78.6164 36.095 78.3701 34.9967 78.3701C32.5286 78.3701 30.6159 79.8604 30.6159 82.9026C30.6159 85.6491 32.2448 87.3735 35.0214 87.3735C35.9593 87.3735 36.9959 87.1764 37.6129 86.9301L38.0818 89.3564H38.0695Z" fill="#003478"/>
<path d="M40.0078 75.3037H43.1052V80.9816H43.1423C43.4631 80.5506 43.8703 80.2303 44.364 79.9594C44.8082 79.713 45.4005 79.5776 45.9805 79.5776C47.955 79.5776 49.4729 80.9447 49.4729 83.9376V89.7634H46.3754V84.2948C46.3754 82.9892 45.9312 82.0901 44.7588 82.0901C43.9444 82.0901 43.4384 82.6197 43.2163 83.174C43.1299 83.3711 43.1176 83.642 43.1176 83.8637V89.7634H40.0202V75.316L40.0078 75.3037Z" fill="#003478"/>
<path d="M57.6171 89.7512L57.432 88.7536H57.3703C56.7162 89.5418 55.7043 89.9729 54.5197 89.9729C52.4958 89.9729 51.2988 88.5073 51.2988 86.9184C51.2988 84.3319 53.6188 83.088 57.1482 83.1126V82.9648C57.1482 82.4352 56.8643 81.6839 55.3341 81.6839C54.3099 81.6839 53.2363 82.0287 52.5822 82.4352L52.0146 80.4399C52.7056 80.0581 54.0754 79.5654 55.8894 79.5654C59.209 79.5654 60.2703 81.5238 60.2703 83.8639V87.3249C60.2703 88.2856 60.3073 89.197 60.4183 89.7512H57.6294H57.6171ZM57.2469 85.0463C55.6179 85.0217 54.3469 85.4158 54.3469 86.6105C54.3469 87.3988 54.8775 87.7929 55.5686 87.7929C56.346 87.7929 56.9754 87.2879 57.1852 86.6598C57.2222 86.4997 57.2469 86.3149 57.2469 86.1302V85.0463Z" fill="#003478"/>
<path d="M62.7133 83.075C62.7133 81.6094 62.6763 80.6487 62.627 79.7988H65.2925L65.3912 81.634H65.4776C65.9835 80.193 67.2052 79.5771 68.1678 79.5771C68.4516 79.5771 68.5997 79.5771 68.8218 79.6141V82.5208C68.5997 82.4839 68.3282 82.4346 67.9827 82.4346C66.8474 82.4346 66.0699 83.0504 65.8601 83.9988C65.8231 84.2082 65.7984 84.4422 65.7984 84.6885V89.7383H62.701V83.0627L62.7133 83.075Z" fill="#003478"/>
<path d="M79.9909 79.7994C79.9539 80.4276 79.9045 81.2651 79.9045 82.7554V88.3102C79.9045 90.2193 79.522 91.7958 78.399 92.7811C77.3007 93.7172 75.8075 94.0004 74.339 94.0004C73.0309 94.0004 71.6488 93.7295 70.748 93.2245L71.3526 90.8844C71.982 91.2538 73.0803 91.6357 74.2526 91.6357C75.7211 91.6357 76.8441 90.8474 76.8441 89.0122V88.3595H76.8071C76.2147 89.197 75.2522 89.665 74.1169 89.665C71.6488 89.665 69.8965 87.6697 69.8965 84.8C69.8965 81.61 71.9697 79.5654 74.4254 79.5654C75.7952 79.5654 76.6467 80.1566 77.1526 80.9695H77.1896L77.2884 79.7871H79.9785L79.9909 79.7994ZM76.8071 83.8516C76.8071 83.6545 76.7824 83.4452 76.7454 83.285C76.5232 82.4721 75.9309 81.9179 75.0794 81.9179C73.9565 81.9179 73.0433 82.9402 73.0433 84.7507C73.0433 86.241 73.7837 87.3988 75.0794 87.3988C75.8692 87.3988 76.5109 86.8692 76.7084 86.1425C76.7947 85.9208 76.8071 85.5882 76.8071 85.3296V83.8639V83.8516Z" fill="#003478"/>
<path d="M85.5918 77.0281C85.5918 77.8779 84.9378 78.58 83.9259 78.58C82.914 78.58 82.2969 77.8902 82.3093 77.0281C82.2846 76.129 82.9386 75.4639 83.9382 75.4639C84.9378 75.4639 85.5671 76.129 85.5918 77.0281ZM82.3957 89.7511V79.7993H85.4931V89.7511H82.3957Z" fill="#003478"/>
<path d="M87.9868 82.9765C87.9868 81.7325 87.9498 80.6733 87.9004 79.7988H90.5906L90.7387 81.166H90.8004C91.2076 80.5378 92.2319 79.5771 93.8855 79.5771C95.9216 79.5771 97.4518 80.9197 97.4518 83.851V89.7506H94.3544V84.2328C94.3544 82.9519 93.9101 82.0774 92.7872 82.0774C91.9357 82.0774 91.4174 82.6686 91.2199 83.2352C91.1336 83.4199 91.0965 83.7278 91.0965 84.0111V89.7506H87.9991V82.9765H87.9868Z" fill="#003478"/>
<path d="M109.446 79.7994C109.409 80.4276 109.36 81.2651 109.36 82.7554V88.3102C109.36 90.2193 108.977 91.7958 107.854 92.7811C106.756 93.7172 105.263 94.0004 103.794 94.0004C102.486 94.0004 101.104 93.7295 100.203 93.2245L100.808 90.8844C101.437 91.2538 102.535 91.6357 103.708 91.6357C105.176 91.6357 106.299 90.8474 106.299 89.0122V88.3595H106.262C105.67 89.197 104.707 89.665 103.572 89.665C101.104 89.665 99.3516 87.6697 99.3516 84.8C99.3516 81.61 101.425 79.5654 103.88 79.5654C105.25 79.5654 106.102 80.1566 106.608 80.9695H106.645L106.743 79.7871H109.434L109.446 79.7994ZM106.262 83.8516C106.262 83.6545 106.237 83.4452 106.2 83.285C105.978 82.4721 105.386 81.9179 104.535 81.9179C103.412 81.9179 102.498 82.9402 102.498 84.7507C102.498 86.241 103.239 87.3988 104.535 87.3988C105.324 87.3988 105.966 86.8692 106.163 86.1425C106.25 85.9208 106.262 85.5882 106.262 85.3296V83.8639V83.8516Z" fill="#003478"/>
<path d="M116.185 86.5483C117.024 86.9793 118.307 87.3981 119.628 87.3981C121.059 87.3981 121.812 86.8069 121.812 85.9078C121.812 85.0087 121.158 84.5653 119.504 83.9741C117.221 83.1858 115.728 81.9172 115.728 79.9219C115.728 77.5818 117.69 75.7959 120.923 75.7959C122.478 75.7959 123.614 76.1161 124.428 76.4856L123.737 78.9859C123.182 78.7149 122.207 78.3331 120.862 78.3331C119.517 78.3331 118.863 78.9489 118.863 79.651C118.863 80.5255 119.64 80.9073 121.417 81.5847C123.848 82.4838 124.983 83.7401 124.983 85.6738C124.983 87.977 123.206 89.923 119.443 89.923C117.875 89.923 116.32 89.5165 115.543 89.0855L116.172 86.5236L116.185 86.5483Z" fill="#003478"/>
<path d="M136.843 84.6639C136.843 88.3096 134.252 89.9723 131.586 89.9723C128.674 89.9723 126.428 88.0633 126.428 84.8486C126.428 81.634 128.55 79.5771 131.746 79.5771C134.943 79.5771 136.843 81.671 136.843 84.6639ZM129.624 84.7624C129.624 86.4744 130.34 87.7553 131.66 87.7553C132.869 87.7553 133.635 86.5483 133.635 84.7624C133.635 83.2721 133.067 81.7695 131.66 81.7695C130.167 81.7695 129.624 83.2967 129.624 84.7624Z" fill="#003478"/>
<path d="M138.754 75.3037H141.851V89.751H138.754V75.3037Z" fill="#003478"/>
<path d="M153.761 86.5485C153.761 87.8541 153.798 88.9133 153.847 89.7385H151.157L151.009 88.3344H150.947C150.565 88.9503 149.627 89.9602 147.825 89.9602C145.801 89.9602 144.32 88.6916 144.32 85.6248V79.7867H147.442V85.1444C147.442 86.5855 147.911 87.46 148.985 87.46C149.836 87.46 150.33 86.8688 150.54 86.3761C150.626 86.1913 150.639 85.945 150.639 85.6987V79.7744H153.761V86.5239V86.5485Z" fill="#003478"/>
<path d="M159.71 76.9537V79.7988H161.931V82.0774H159.71V85.6738C159.71 86.8809 159.993 87.4228 160.931 87.4228C161.314 87.4228 161.622 87.3859 161.845 87.3366L161.869 89.6767C161.462 89.8368 160.722 89.9354 159.845 89.9354C158.846 89.9354 158.007 89.5905 157.525 89.0855C156.958 88.4943 156.674 87.5336 156.674 86.1296V82.0651H155.354V79.7865H156.674V77.6311L159.71 76.9414V76.9537Z" fill="#003478"/>
<path d="M166.928 77.0281C166.928 77.8779 166.274 78.58 165.262 78.58C164.25 78.58 163.633 77.8902 163.645 77.0281C163.621 76.129 164.275 75.4639 165.274 75.4639C166.274 75.4639 166.903 76.129 166.928 77.0281ZM163.732 89.7511V79.7993H166.829V89.7511H163.732Z" fill="#003478"/>
<path d="M179.169 84.6639C179.169 88.3096 176.578 89.9723 173.912 89.9723C171 89.9723 168.754 88.0633 168.754 84.8486C168.754 81.634 170.876 79.5771 174.073 79.5771C177.269 79.5771 179.169 81.671 179.169 84.6639ZM171.95 84.7624C171.95 86.4744 172.666 87.7553 173.986 87.7553C175.196 87.7553 175.961 86.5483 175.961 84.7624C175.961 83.2721 175.393 81.7695 173.986 81.7695C172.493 81.7695 171.95 83.2967 171.95 84.7624Z" fill="#003478"/>
<path d="M181.082 82.9765C181.082 81.7325 181.045 80.6733 180.996 79.7988H183.686L183.834 81.166H183.896C184.303 80.5378 185.328 79.5771 186.981 79.5771C189.017 79.5771 190.548 80.9197 190.548 83.851V89.7506H187.45V84.2328C187.45 82.9519 187.006 82.0774 185.883 82.0774C185.031 82.0774 184.513 82.6686 184.316 83.2352C184.229 83.4199 184.192 83.7278 184.192 84.0111V89.7506H181.095V82.9765H181.082Z" fill="#003478"/>
<path d="M193.016 87.041C193.584 87.3858 194.769 87.7923 195.682 87.7923C196.595 87.7923 197.002 87.4721 197.002 86.9548C197.002 86.4375 196.694 86.2035 195.534 85.8216C193.473 85.1319 192.683 84.0111 192.695 82.8287C192.695 80.9812 194.287 79.5771 196.755 79.5771C197.915 79.5771 198.964 79.8358 199.569 80.1437L199.014 82.2868C198.569 82.0405 197.706 81.7202 196.854 81.7202C196.101 81.7202 195.669 82.0281 195.669 82.5331C195.669 83.0012 196.052 83.2475 197.286 83.6662C199.186 84.319 199.976 85.2797 200.001 86.7331C200.001 88.5806 198.532 89.9477 195.682 89.9477C194.374 89.9477 193.214 89.6644 192.461 89.258L193.016 87.041Z" fill="#003478"/>
<path d="M134.387 20.0515V35.5334L111.903 20.4457C110.249 19.3372 108.016 20.5196 108.016 22.5148V43.7363H113.742V28.2544L136.226 43.2806C137.879 44.3891 140.101 43.2067 140.101 41.2114V20.0515H134.375H134.387Z" fill="#003478"/>
<path d="M103.917 20.0518H98.1914V43.7365H103.917V20.0518Z" fill="#003478"/>
<path d="M94.1442 43.7365V38.3542H77.0035C75.9916 38.3542 75.1771 37.5413 75.1771 36.5313V20.0518H69.4512V37.2826C69.4512 40.8421 72.3388 43.7242 75.9052 43.7242H94.1319L94.1442 43.7365Z" fill="#003478"/>
<path d="M172.691 20.0518H163.954L150.096 29.905V20.0518H144.037V43.7365H150.096V34.573L163.769 43.7365H172.519C172.667 43.7365 172.741 43.5394 172.605 43.4532L156.39 32.2452L172.79 20.3474C172.914 20.2611 172.852 20.0641 172.704 20.0641L172.691 20.0518Z" fill="#003478"/>
<path d="M151.576 52.2715H182.859C186.709 52.0621 187.573 49.7835 187.573 47.0123V42.5168V42.3443V37.1591V21.4431V16.7752C187.573 13.9916 186.709 11.7254 182.859 11.516H151.576V0H183.76C193.632 0 200 6.82338 200 17.3787V22.4038V41.3836V46.4088C200 56.9641 193.62 63.7875 183.76 63.7875H151.576V52.2715Z" fill="#003478"/>
<path d="M0 17.3787V46.4211C0 56.9641 6.37996 63.7875 16.2399 63.7875H48.4235V52.2715H17.1407C13.2906 52.0621 12.4267 49.7835 12.4267 47.0123V37.5286H41.4142V26.2835H12.4267V16.7998C12.4267 14.0162 13.2906 11.75 17.1407 11.5406H48.4235V0H16.2399C6.37996 0 0 6.82338 0 17.3787Z" fill="#E96600"/>
<path d="M61.64 29.042H49.0898V34.7569H61.64V29.042Z" fill="#E96600"/>
<path d="M106.189 52.2715H98.291V63.7875H106.189V52.2715Z" fill="url(#paint0_linear_1218_4489)"/>
<path d="M127.919 52.2715H121.428V63.7875H127.919V52.2715Z" fill="url(#paint1_linear_1218_4489)"/>
<path d="M73.5718 52.2715H63.5762V63.7875H73.5718V52.2715Z" fill="url(#paint2_linear_1218_4489)"/>
<path d="M117.048 52.2715H109.854V63.7875H117.048V52.2715Z" fill="url(#paint3_linear_1218_4489)"/>
<path d="M84.4452 52.2715H75.1406V63.7875H84.4452V52.2715Z" fill="url(#paint4_linear_1218_4489)"/>
<path d="M138.78 52.2715H132.992V63.7875H138.78V52.2715Z" fill="url(#paint5_linear_1218_4489)"/>
<path d="M95.3161 52.2715H86.7148V63.7875H95.3161V52.2715Z" fill="url(#paint6_linear_1218_4489)"/>
<path d="M148.516 52.2715H143.889V63.7875H148.516V52.2715Z" fill="url(#paint7_linear_1218_4489)"/>
<path d="M62.3676 52.2715H51.6191V63.7875H62.3676V52.2715Z" fill="#E96600"/>
</g>
<defs>
<linearGradient id="paint0_linear_1218_4489" x1="140.557" y1="58.0233" x2="44.956" y2="58.0233" gradientUnits="userSpaceOnUse">
<stop offset="0.23" stop-color="#FED900"/>
<stop offset="0.67" stop-color="#F1942F"/>
<stop offset="0.89" stop-color="#E96600"/>
<stop offset="1" stop-color="#E96600"/>
</linearGradient>
<linearGradient id="paint1_linear_1218_4489" x1="140.555" y1="58.0233" x2="44.9546" y2="58.0233" gradientUnits="userSpaceOnUse">
<stop offset="0.23" stop-color="#FED900"/>
<stop offset="0.67" stop-color="#F1942F"/>
<stop offset="0.89" stop-color="#E96600"/>
<stop offset="1" stop-color="#E96600"/>
</linearGradient>
<linearGradient id="paint2_linear_1218_4489" x1="140.555" y1="58.0233" x2="44.9546" y2="58.0233" gradientUnits="userSpaceOnUse">
<stop offset="0.23" stop-color="#FED900"/>
<stop offset="0.67" stop-color="#F1942F"/>
<stop offset="0.89" stop-color="#E96600"/>
<stop offset="1" stop-color="#E96600"/>
</linearGradient>
<linearGradient id="paint3_linear_1218_4489" x1="140.556" y1="58.0233" x2="44.9556" y2="58.0233" gradientUnits="userSpaceOnUse">
<stop offset="0.23" stop-color="#FED900"/>
<stop offset="0.67" stop-color="#F1942F"/>
<stop offset="0.89" stop-color="#E96600"/>
<stop offset="1" stop-color="#E96600"/>
</linearGradient>
<linearGradient id="paint4_linear_1218_4489" x1="140.557" y1="58.0233" x2="44.9561" y2="58.0233" gradientUnits="userSpaceOnUse">
<stop offset="0.23" stop-color="#FED900"/>
<stop offset="0.67" stop-color="#F1942F"/>
<stop offset="0.89" stop-color="#E96600"/>
<stop offset="1" stop-color="#E96600"/>
</linearGradient>
<linearGradient id="paint5_linear_1218_4489" x1="140.557" y1="58.0233" x2="44.9561" y2="58.0233" gradientUnits="userSpaceOnUse">
<stop offset="0.23" stop-color="#FED900"/>
<stop offset="0.67" stop-color="#F1942F"/>
<stop offset="0.89" stop-color="#E96600"/>
<stop offset="1" stop-color="#E96600"/>
</linearGradient>
<linearGradient id="paint6_linear_1218_4489" x1="140.556" y1="-1.78326e-05" x2="44.9551" y2="-1.78326e-05" gradientUnits="userSpaceOnUse">
<stop offset="0.23" stop-color="#FED900"/>
<stop offset="0.67" stop-color="#F1942F"/>
<stop offset="0.89" stop-color="#E96600"/>
<stop offset="1" stop-color="#E96600"/>
</linearGradient>
<linearGradient id="paint7_linear_1218_4489" x1="139.866" y1="58.0233" x2="44.2774" y2="58.0233" gradientUnits="userSpaceOnUse">
<stop offset="0.23" stop-color="#FED900"/>
<stop offset="0.67" stop-color="#F1942F"/>
<stop offset="0.89" stop-color="#E96600"/>
<stop offset="1" stop-color="#E96600"/>
</linearGradient>
<clipPath id="clip0_1218_4489">
<rect width="200" height="94" fill="white"/>
</clipPath>
</defs>
</svg>
