<svg width="200" height="86" viewBox="0 0 200 86" fill="none" xmlns="http://www.w3.org/2000/svg">
<g clip-path="url(#clip0_1218_4433)">
<path d="M134.387 19.8451V35.1679L111.903 20.2352C110.249 19.1381 108.016 20.3084 108.016 22.2831V43.2864H113.742V27.9636L136.238 42.8354C137.892 43.9325 140.113 42.7622 140.113 40.7875V19.8451H134.387Z" fill="#003478"/>
<path d="M103.917 19.8457H98.1914V43.2869H103.917V19.8457Z" fill="#003478"/>
<path d="M94.1442 43.2869V37.9599H77.0035C75.9916 37.9599 75.1771 37.1554 75.1771 36.1558V19.8457H69.4512V36.8994C69.4512 40.4223 72.3388 43.2748 75.9052 43.2748H94.1319L94.1442 43.2869Z" fill="#003478"/>
<path d="M172.691 19.8457H163.954L150.096 29.5977V19.8457H144.037V43.2869H150.096V34.2176L163.769 43.2869H172.519C172.667 43.2869 172.741 43.0919 172.605 43.0066L156.39 31.9137L172.79 20.1383C172.914 20.0529 172.852 19.8579 172.704 19.8579L172.691 19.8457Z" fill="#003478"/>
<path d="M151.576 51.7341H182.859C186.709 51.5269 187.573 49.2717 187.573 46.529V42.0797V41.909V36.777V21.2227V16.6027C187.573 13.8478 186.709 11.6048 182.859 11.3976H151.576V0H183.76C193.632 0 200 6.75322 200 17.2V22.1735V40.9582V45.9317C200 56.3784 193.62 63.1317 183.76 63.1317H151.576V51.7341Z" fill="#003478"/>
<path d="M0 17.2V45.9439C0 56.3906 6.37996 63.1439 16.2399 63.1439H48.4235V51.7463H17.1407C13.2906 51.539 12.4267 49.2839 12.4267 46.5412V37.1549H41.4142V26.0255H12.4267V16.6393C12.4267 13.8843 13.2906 11.6414 17.1407 11.4342H48.4235V0H16.2399C6.37996 0 0 6.75322 0 17.2Z" fill="#E96600"/>
<path d="M61.64 28.7441H49.0898V34.4003H61.64V28.7441Z" fill="#E96600"/>
<path d="M106.189 51.7344H98.291V63.132H106.189V51.7344Z" fill="url(#paint0_linear_1218_4433)"/>
<path d="M127.919 51.7344H121.428V63.132H127.919V51.7344Z" fill="url(#paint1_linear_1218_4433)"/>
<path d="M73.5718 51.7344H63.5762V63.132H73.5718V51.7344Z" fill="url(#paint2_linear_1218_4433)"/>
<path d="M117.048 51.7344H109.854V63.132H117.048V51.7344Z" fill="url(#paint3_linear_1218_4433)"/>
<path d="M84.4452 51.7344H75.1406V63.132H84.4452V51.7344Z" fill="url(#paint4_linear_1218_4433)"/>
<path d="M138.78 51.7344H132.992V63.132H138.78V51.7344Z" fill="url(#paint5_linear_1218_4433)"/>
<path d="M95.3161 51.7344H86.7148V63.132H95.3161V51.7344Z" fill="url(#paint6_linear_1218_4433)"/>
<path d="M148.516 51.7344H143.889V63.132H148.516V51.7344Z" fill="url(#paint7_linear_1218_4433)"/>
<path d="M62.3676 51.7344H51.6191V63.132H62.3676V51.7344Z" fill="#E96600"/>
<path d="M16.9797 79.4537H13.6725V82.4768H17.3499V83.3911H12.5742V74.9922H17.1648V75.9064H13.6725V78.5638H16.9797V79.4659V79.4537Z" fill="#231916"/>
<path d="M18.584 74.5537H19.6946V83.3914H18.584V74.5537Z" fill="#231916"/>
<path d="M22.0138 80.5759C22.0385 82.063 23.001 82.6725 24.1116 82.6725C24.9014 82.6725 25.3827 82.5384 25.8023 82.3556L25.9874 83.1357C25.5925 83.3064 24.9261 83.5136 23.9635 83.5136C22.0878 83.5136 20.9648 82.2946 20.9648 80.4783C20.9648 78.662 22.0508 77.2236 23.8278 77.2236C25.8146 77.2236 26.3452 78.9546 26.3452 80.0639C26.3452 80.2833 26.3206 80.4662 26.3082 80.5759H22.0261H22.0138ZM25.2716 79.7957C25.284 79.1009 24.9755 78.016 23.7291 78.016C22.6061 78.016 22.1125 79.0399 22.0261 79.7957H25.2716Z" fill="#231916"/>
<path d="M31.8994 83.1724C31.6032 83.3186 30.9615 83.5259 30.1471 83.5259C28.3083 83.5259 27.1113 82.2947 27.1113 80.454C27.1113 78.6133 28.3947 77.248 30.3939 77.248C31.0479 77.248 31.6279 77.4065 31.9364 77.565L31.6896 78.4061C31.4305 78.2598 31.0109 78.1135 30.4062 78.1135C29.0117 78.1135 28.2466 79.1375 28.2466 80.393C28.2466 81.7827 29.1598 82.6482 30.3692 82.6482C30.9985 82.6482 31.4181 82.4897 31.7266 82.3434L31.9117 83.1602L31.8994 83.1724Z" fill="#231916"/>
<path d="M34.3669 75.6386V77.3696H35.9588V78.1985H34.3669V81.4532C34.3669 82.1968 34.5766 82.6235 35.1937 82.6235C35.4898 82.6235 35.6996 82.5869 35.8354 82.5503L35.8847 83.3671C35.6749 83.4524 35.3294 83.5133 34.8975 83.5133C34.3792 83.5133 33.9596 83.3549 33.7005 83.0501C33.3796 82.721 33.2686 82.1968 33.2686 81.4776V78.1863H32.3184V77.3574H33.2686V75.9068L34.3545 75.6143L34.3669 75.6386Z" fill="#231916"/>
<path d="M37.0337 79.2467C37.0337 78.5397 37.0214 77.9302 36.9844 77.3694H37.9593L37.9963 78.5519H38.0456C38.3171 77.7473 38.9959 77.2354 39.7363 77.2354C39.8597 77.2354 39.9461 77.2475 40.0571 77.2719V78.3081C39.9461 78.2837 39.835 78.2715 39.6746 78.2715C38.8971 78.2715 38.3418 78.8566 38.1814 79.6733C38.1567 79.8196 38.132 80.0025 38.132 80.1853V83.4035H37.0337V79.2589V79.2467Z" fill="#231916"/>
<path d="M42.2272 75.6748C42.2395 76.0527 41.9681 76.3453 41.5238 76.3453C41.1289 76.3453 40.8574 76.0405 40.8574 75.6748C40.8574 75.3091 41.1536 74.9922 41.5485 74.9922C41.9434 74.9922 42.2272 75.2969 42.2272 75.6748ZM40.9932 83.3911V77.3692H42.1038V83.3911H40.9932Z" fill="#231916"/>
<path d="M48.1259 83.1724C47.8298 83.3186 47.1881 83.5259 46.3736 83.5259C44.5349 83.5259 43.3379 82.2947 43.3379 80.454C43.3379 78.6133 44.6213 77.248 46.6204 77.248C47.2745 77.248 47.8545 77.4065 48.163 77.565L47.9162 78.4061C47.657 78.2598 47.2374 78.1135 46.6328 78.1135C45.2383 78.1135 44.4732 79.1375 44.4732 80.393C44.4732 81.7827 45.3864 82.6482 46.5957 82.6482C47.2251 82.6482 47.6447 82.4897 47.9532 82.3434L48.1383 83.1602L48.1259 83.1724Z" fill="#231916"/>
<path d="M53.6672 83.3911L50.8906 74.9922H52.0753L53.3957 79.1246C53.7659 80.2582 54.0744 81.2822 54.3089 82.2696H54.3336C54.568 81.2944 54.9259 80.2339 55.3085 79.149L56.7399 75.0044H57.9123L54.8766 83.4032H53.6672V83.3911Z" fill="#231916"/>
<path d="M59.2462 80.5759C59.2709 82.063 60.2334 82.6725 61.3441 82.6725C62.1338 82.6725 62.6151 82.5384 63.0347 82.3556L63.2198 83.1357C62.8249 83.3064 62.1585 83.5136 61.196 83.5136C59.3202 83.5136 58.1973 82.2946 58.1973 80.4783C58.1973 78.662 59.2832 77.2236 61.0602 77.2236C63.047 77.2236 63.5777 78.9546 63.5777 80.0639C63.5777 80.2833 63.553 80.4662 63.5406 80.5759H59.2585H59.2462ZM62.504 79.7957C62.5164 79.1009 62.2079 78.016 60.9615 78.016C59.8385 78.016 59.3449 79.0399 59.2585 79.7957H62.504Z" fill="#231916"/>
<path d="M64.7871 74.5537H65.8977V78.3204H65.9224C66.0952 78.0035 66.379 77.7353 66.7122 77.5524C67.0454 77.3696 67.4279 77.2355 67.8475 77.2355C68.662 77.2355 69.9824 77.7353 69.9824 79.8076V83.3914H68.8718V79.9295C68.8718 78.9543 68.5016 78.1376 67.465 78.1376C66.7492 78.1376 66.1816 78.6373 65.9718 79.2346C65.9101 79.3809 65.8977 79.5516 65.8977 79.7588V83.3914H64.7871V74.5537Z" fill="#231916"/>
<path d="M72.8444 75.6748C72.8567 76.0527 72.5852 76.3453 72.141 76.3453C71.7461 76.3453 71.4746 76.0405 71.4746 75.6748C71.4746 75.3091 71.7708 74.9922 72.1657 74.9922C72.5606 74.9922 72.8444 75.2969 72.8444 75.6748ZM71.6104 83.3911V77.3692H72.721V83.3911H71.6104Z" fill="#231916"/>
<path d="M78.7549 83.1724C78.4587 83.3186 77.817 83.5259 77.0025 83.5259C75.1638 83.5259 73.9668 82.2947 73.9668 80.454C73.9668 78.6133 75.2502 77.248 77.2493 77.248C77.9034 77.248 78.4834 77.4065 78.7919 77.565L78.5451 78.4061C78.2859 78.2598 77.8663 78.1135 77.2617 78.1135C75.8672 78.1135 75.1021 79.1375 75.1021 80.393C75.1021 81.7827 76.0153 82.6482 77.2247 82.6482C77.854 82.6482 78.2736 82.4897 78.5821 82.3434L78.7672 83.1602L78.7549 83.1724Z" fill="#231916"/>
<path d="M79.8789 74.5537H80.9895V83.3914H79.8789V74.5537Z" fill="#231916"/>
<path d="M83.3087 80.5759C83.3334 82.063 84.2959 82.6725 85.4065 82.6725C86.1963 82.6725 86.6776 82.5384 87.0972 82.3556L87.2823 83.1357C86.8874 83.3064 86.221 83.5136 85.2585 83.5136C83.3827 83.5136 82.2598 82.2946 82.2598 80.4783C82.2598 78.662 83.3457 77.2236 85.1227 77.2236C87.1095 77.2236 87.6401 78.9546 87.6401 80.0639C87.6401 80.2833 87.6155 80.4662 87.6031 80.5759H83.321H83.3087ZM86.5665 79.7957C86.5789 79.1009 86.2704 78.016 85.024 78.016C83.901 78.016 83.4074 79.0399 83.321 79.7957H86.5665Z" fill="#231916"/>
<path d="M97.3284 83.1237C96.9211 83.3187 96.119 83.5259 95.0824 83.5259C92.6884 83.5259 90.8867 82.0266 90.8867 79.2839C90.8867 76.5411 92.6884 74.8711 95.3292 74.8711C96.3905 74.8711 97.0569 75.0905 97.3407 75.249L97.0816 76.1388C96.662 75.9438 96.0697 75.7853 95.3663 75.7853C93.3795 75.7853 92.0467 77.0409 92.0467 79.2473C92.0467 81.3074 93.2437 82.6239 95.3169 82.6239C95.9833 82.6239 96.662 82.4898 97.1063 82.2704L97.3284 83.1359V83.1237Z" fill="#231916"/>
<path d="M98.5 74.5537H99.6106V78.3204H99.6353C99.8081 78.0035 100.092 77.7353 100.425 77.5524C100.758 77.3696 101.141 77.2355 101.56 77.2355C102.375 77.2355 103.695 77.7353 103.695 79.8076V83.3914H102.585V79.9295C102.585 78.9543 102.214 78.1376 101.178 78.1376C100.462 78.1376 99.8945 78.6373 99.6847 79.2346C99.623 79.3809 99.6106 79.5516 99.6106 79.7588V83.3914H98.5V74.5537Z" fill="#231916"/>
<path d="M108.706 83.3918L108.619 82.636H108.582C108.237 83.1114 107.583 83.5381 106.719 83.5381C105.485 83.5381 104.855 82.6726 104.855 81.8071C104.855 80.3443 106.164 79.5519 108.521 79.5641V79.4422C108.521 78.9424 108.385 78.0526 107.138 78.0526C106.571 78.0526 105.978 78.2232 105.547 78.5036L105.3 77.7844C105.806 77.4553 106.534 77.248 107.299 77.248C109.162 77.248 109.619 78.5036 109.619 79.7104V81.9656C109.619 82.4897 109.644 83.0017 109.718 83.4162H108.706V83.3918ZM108.545 80.3199C107.336 80.2955 105.966 80.5028 105.966 81.673C105.966 82.38 106.447 82.7213 107.015 82.7213C107.805 82.7213 108.311 82.2215 108.496 81.7096C108.533 81.5999 108.558 81.478 108.558 81.3561V80.3077L108.545 80.3199Z" fill="#231916"/>
<path d="M111.235 79.2467C111.235 78.5397 111.223 77.9302 111.186 77.3694H112.16L112.197 78.5519H112.247C112.518 77.7473 113.197 77.2354 113.937 77.2354C114.061 77.2354 114.147 77.2475 114.258 77.2719V78.3081C114.147 78.2837 114.036 78.2715 113.876 78.2715C113.098 78.2715 112.543 78.8566 112.383 79.6733C112.358 79.8196 112.333 80.0025 112.333 80.1853V83.4035H111.235V79.2589V79.2467Z" fill="#231916"/>
<path d="M120.453 77.3694C120.429 77.8083 120.404 78.2959 120.404 79.0273V82.5258C120.404 83.9032 120.132 84.7565 119.528 85.2807C118.935 85.8293 118.084 85.9999 117.306 85.9999C116.529 85.9999 115.764 85.8293 115.283 85.5001L115.554 84.6712C115.961 84.915 116.591 85.1466 117.343 85.1466C118.479 85.1466 119.306 84.5615 119.306 83.0378V82.3673H119.281C118.935 82.9281 118.281 83.3791 117.343 83.3791C115.826 83.3791 114.752 82.1113 114.752 80.4413C114.752 78.3934 116.097 77.2354 117.504 77.2354C118.565 77.2354 119.145 77.7839 119.404 78.2837H119.429L119.478 77.3694H120.453ZM119.306 79.7465C119.306 79.5636 119.293 79.393 119.244 79.2467C119.046 78.6128 118.503 78.0886 117.689 78.0886C116.628 78.0886 115.875 78.9785 115.875 80.3682C115.875 81.5506 116.48 82.538 117.677 82.538C118.355 82.538 118.972 82.1113 119.219 81.4165C119.281 81.2337 119.306 81.0142 119.306 80.8314V79.7465Z" fill="#231916"/>
<path d="M123.317 75.6748C123.329 76.0527 123.058 76.3453 122.614 76.3453C122.219 76.3453 121.947 76.0405 121.947 75.6748C121.947 75.3091 122.243 74.9922 122.638 74.9922C123.033 74.9922 123.317 75.2969 123.317 75.6748ZM122.083 83.3911V77.3692H123.194V83.3911H122.083Z" fill="#231916"/>
<path d="M124.86 79.0029C124.86 78.3812 124.848 77.8692 124.811 77.3694H125.798L125.859 78.369H125.884C126.193 77.7961 126.896 77.2354 127.896 77.2354C128.735 77.2354 130.055 77.7351 130.055 79.7952V83.3913H128.945V79.9171C128.945 78.9419 128.574 78.1374 127.538 78.1374C126.81 78.1374 126.242 78.6494 126.045 79.2589C125.995 79.393 125.971 79.588 125.971 79.7709V83.3913H124.86V78.9907V79.0029Z" fill="#231916"/>
<path d="M136.953 77.3694C136.929 77.8083 136.904 78.2959 136.904 79.0273V82.5258C136.904 83.9032 136.632 84.7565 136.028 85.2807C135.435 85.8293 134.584 85.9999 133.806 85.9999C133.029 85.9999 132.264 85.8293 131.783 85.5001L132.054 84.6712C132.461 84.915 133.091 85.1466 133.843 85.1466C134.979 85.1466 135.806 84.5615 135.806 83.0378V82.3673H135.781C135.435 82.9281 134.781 83.3791 133.843 83.3791C132.326 83.3791 131.252 82.1113 131.252 80.4413C131.252 78.3934 132.597 77.2354 134.004 77.2354C135.065 77.2354 135.645 77.7839 135.904 78.2837H135.929L135.978 77.3694H136.953ZM135.806 79.7465C135.806 79.5636 135.793 79.393 135.744 79.2467C135.546 78.6128 135.003 78.0886 134.189 78.0886C133.128 78.0886 132.375 78.9785 132.375 80.3682C132.375 81.5506 132.98 82.538 134.177 82.538C134.855 82.538 135.472 82.1113 135.719 81.4165C135.781 81.2337 135.806 81.0142 135.806 80.8314V79.7465Z" fill="#231916"/>
<path d="M140.964 82.0754C141.458 82.3801 142.173 82.6239 142.926 82.6239C144.049 82.6239 144.703 82.0388 144.703 81.1977C144.703 80.4175 144.247 79.9665 143.099 79.5276C141.717 79.0401 140.853 78.333 140.853 77.1506C140.853 75.8463 141.951 74.8711 143.605 74.8711C144.481 74.8711 145.11 75.0661 145.481 75.2856L145.172 76.1754C144.901 76.0291 144.333 75.7732 143.556 75.7732C142.396 75.7732 141.951 76.4558 141.951 77.0287C141.951 77.8089 142.47 78.1989 143.642 78.65C145.073 79.1985 145.814 79.8812 145.814 81.1123C145.814 82.4045 144.839 83.5259 142.84 83.5259C142.025 83.5259 141.125 83.2943 140.668 82.9896L140.939 82.0754H140.964Z" fill="#231916"/>
<path d="M152.65 80.3316C152.65 82.5624 151.083 83.5375 149.614 83.5375C147.961 83.5375 146.689 82.3429 146.689 80.4413C146.689 78.4178 148.022 77.2354 149.713 77.2354C151.403 77.2354 152.65 78.4909 152.65 80.3316ZM147.812 80.3925C147.812 81.7091 148.578 82.7086 149.663 82.7086C150.749 82.7086 151.515 81.7212 151.515 80.3682C151.515 79.3442 150.996 78.0521 149.688 78.0521C148.38 78.0521 147.812 79.2467 147.812 80.3925Z" fill="#231916"/>
<path d="M153.883 74.5537H154.993V83.3914H153.883V74.5537Z" fill="#231916"/>
<path d="M161.794 81.7458C161.794 82.3675 161.807 82.916 161.844 83.3914H160.856L160.795 82.4041H160.77C160.486 82.8917 159.832 83.5255 158.759 83.5255C157.796 83.5255 156.648 83.0014 156.648 80.8803V77.3574H157.759V80.6975C157.759 81.8433 158.117 82.6113 159.117 82.6113C159.857 82.6113 160.375 82.0993 160.585 81.6117C160.647 81.4532 160.684 81.246 160.684 81.051V77.3574H161.794V81.7458Z" fill="#231916"/>
<path d="M164.804 75.6386V77.3696H166.396V78.1985H164.804V81.4532C164.804 82.1968 165.014 82.6235 165.631 82.6235C165.927 82.6235 166.137 82.5869 166.273 82.5503L166.322 83.3671C166.112 83.4524 165.767 83.5133 165.335 83.5133C164.817 83.5133 164.397 83.3549 164.138 83.0501C163.817 82.721 163.706 82.1968 163.706 81.4776V78.1863H162.756V77.3574H163.706V75.9068L164.792 75.6143L164.804 75.6386Z" fill="#231916"/>
<path d="M168.717 75.6748C168.73 76.0527 168.458 76.3453 168.014 76.3453C167.619 76.3453 167.348 76.0405 167.348 75.6748C167.348 75.3091 167.644 74.9922 168.039 74.9922C168.434 74.9922 168.717 75.2969 168.717 75.6748ZM167.483 83.3911V77.3692H168.594V83.3911H167.483Z" fill="#231916"/>
<path d="M175.789 80.3316C175.789 82.5624 174.221 83.5375 172.753 83.5375C171.099 83.5375 169.828 82.3429 169.828 80.4413C169.828 78.4178 171.161 77.2354 172.852 77.2354C174.542 77.2354 175.789 78.4909 175.789 80.3316ZM170.951 80.3925C170.951 81.7091 171.716 82.7086 172.802 82.7086C173.888 82.7086 174.653 81.7212 174.653 80.3682C174.653 79.3442 174.135 78.0521 172.827 78.0521C171.519 78.0521 170.951 79.2467 170.951 80.3925Z" fill="#231916"/>
<path d="M177.022 79.0029C177.022 78.3812 177.01 77.8692 176.973 77.3694H177.96L178.022 78.369H178.046C178.355 77.7961 179.058 77.2354 180.058 77.2354C180.897 77.2354 182.217 77.7351 182.217 79.7952V83.3913H181.107V79.9171C181.107 78.9419 180.736 78.1374 179.7 78.1374C178.972 78.1374 178.404 78.6494 178.207 79.2589C178.157 79.393 178.133 79.588 178.133 79.7709V83.3913H177.022V78.9907V79.0029Z" fill="#231916"/>
<path d="M183.699 82.2703C184.032 82.4775 184.612 82.7091 185.167 82.7091C185.969 82.7091 186.352 82.3068 186.352 81.8071C186.352 81.2829 186.031 81.0025 185.216 80.6978C184.118 80.3077 183.6 79.7104 183.6 78.9912C183.6 78.016 184.39 77.2236 185.71 77.2236C186.327 77.2236 186.87 77.3943 187.216 77.6015L186.944 78.3939C186.71 78.2476 186.265 78.0404 185.698 78.0404C185.044 78.0404 184.673 78.4183 184.673 78.8571C184.673 79.3569 185.044 79.5763 185.833 79.881C186.895 80.2833 187.438 80.8075 187.438 81.6973C187.438 82.7579 186.611 83.5015 185.155 83.5015C184.488 83.5015 183.871 83.343 183.439 83.087L183.711 82.2581L183.699 82.2703Z" fill="#231916"/>
</g>
<defs>
<linearGradient id="paint0_linear_1218_4433" x1="140.557" y1="57.4271" x2="44.956" y2="57.4271" gradientUnits="userSpaceOnUse">
<stop offset="0.23" stop-color="#FED900"/>
<stop offset="0.67" stop-color="#F1942F"/>
<stop offset="0.89" stop-color="#E96600"/>
<stop offset="1" stop-color="#E96600"/>
</linearGradient>
<linearGradient id="paint1_linear_1218_4433" x1="140.555" y1="57.4271" x2="44.9546" y2="57.4271" gradientUnits="userSpaceOnUse">
<stop offset="0.23" stop-color="#FED900"/>
<stop offset="0.67" stop-color="#F1942F"/>
<stop offset="0.89" stop-color="#E96600"/>
<stop offset="1" stop-color="#E96600"/>
</linearGradient>
<linearGradient id="paint2_linear_1218_4433" x1="140.555" y1="57.4271" x2="44.9546" y2="57.4271" gradientUnits="userSpaceOnUse">
<stop offset="0.23" stop-color="#FED900"/>
<stop offset="0.67" stop-color="#F1942F"/>
<stop offset="0.89" stop-color="#E96600"/>
<stop offset="1" stop-color="#E96600"/>
</linearGradient>
<linearGradient id="paint3_linear_1218_4433" x1="140.556" y1="57.4271" x2="44.9556" y2="57.4271" gradientUnits="userSpaceOnUse">
<stop offset="0.23" stop-color="#FED900"/>
<stop offset="0.67" stop-color="#F1942F"/>
<stop offset="0.89" stop-color="#E96600"/>
<stop offset="1" stop-color="#E96600"/>
</linearGradient>
<linearGradient id="paint4_linear_1218_4433" x1="140.557" y1="57.4271" x2="44.9561" y2="57.4271" gradientUnits="userSpaceOnUse">
<stop offset="0.23" stop-color="#FED900"/>
<stop offset="0.67" stop-color="#F1942F"/>
<stop offset="0.89" stop-color="#E96600"/>
<stop offset="1" stop-color="#E96600"/>
</linearGradient>
<linearGradient id="paint5_linear_1218_4433" x1="140.557" y1="57.4271" x2="44.9561" y2="57.4271" gradientUnits="userSpaceOnUse">
<stop offset="0.23" stop-color="#FED900"/>
<stop offset="0.67" stop-color="#F1942F"/>
<stop offset="0.89" stop-color="#E96600"/>
<stop offset="1" stop-color="#E96600"/>
</linearGradient>
<linearGradient id="paint6_linear_1218_4433" x1="140.556" y1="57.4271" x2="44.9551" y2="57.4271" gradientUnits="userSpaceOnUse">
<stop offset="0.23" stop-color="#FED900"/>
<stop offset="0.67" stop-color="#F1942F"/>
<stop offset="0.89" stop-color="#E96600"/>
<stop offset="1" stop-color="#E96600"/>
</linearGradient>
<linearGradient id="paint7_linear_1218_4433" x1="139.878" y1="57.4271" x2="44.2774" y2="57.4271" gradientUnits="userSpaceOnUse">
<stop offset="0.23" stop-color="#FED900"/>
<stop offset="0.67" stop-color="#F1942F"/>
<stop offset="0.89" stop-color="#E96600"/>
<stop offset="1" stop-color="#E96600"/>
</linearGradient>
<clipPath id="clip0_1218_4433">
<rect width="200" height="86" fill="white"/>
</clipPath>
</defs>
</svg>
