<svg width="36" height="37" viewBox="0 0 36 37" fill="none" xmlns="http://www.w3.org/2000/svg">
<rect x="26" y="24" width="14" height="3" rx="1.5" transform="rotate(45 26 24)" fill="white"/>
<path d="M25.8995 25.8995C28.3008 23.4981 29.7475 20.3058 29.9699 16.9171C30.1924 13.5284 29.1755 10.1743 27.1087 7.47963C25.0419 4.78496 22.066 2.93342 18.7355 2.26987C15.4049 1.60632 11.9467 2.17601 9.00494 3.87282C6.06321 5.56963 3.83853 8.27787 2.74528 11.4931C1.65202 14.7083 1.76473 18.2113 3.06241 21.3497C4.36009 24.488 6.75427 27.0476 9.799 28.5518C12.8437 30.056 16.3314 30.4022 19.6124 29.5259" stroke="white" stroke-width="3" stroke-linecap="round" stroke-linejoin="round"/>
</svg>
