<svg width="220" height="52" viewBox="0 0 220 52" fill="none" xmlns="http://www.w3.org/2000/svg">
<g clip-path="url(#clip0_591_3329)">
<path d="M68.1714 33.096C71.2194 33.096 72.9127 33.5212 72.9621 35.5356C72.9833 36.644 72.2213 37.9335 71.3887 38.5678C69.526 39.9898 67.8891 40.1432 59.1332 40.1432H15.953L24.2998 5.72277H9.87112C8.90451 5.72277 8.54467 5.99462 8.25539 7.13082L0.346091 39.3903C-1.14264 45.8032 2.20876 51.6654 9.68062 51.6654H29.4856C34.5021 51.6654 41.2191 46.2563 43.9425 41.2584C44.0907 40.9866 44.1895 40.8053 44.3023 40.5753C44.3023 40.5753 44.3588 40.5056 44.38 40.6032C43.9496 42.3946 42.4256 48.7448 42.1786 49.7834C41.8611 51.1356 42.5737 51.6445 43.2299 51.6445H64.5377C82.6071 51.6445 89.6627 43.1474 90.2835 32.9496C90.6293 27.2198 86.9604 23.5115 76.5746 23.5115H68.6018C65.7654 23.5115 62.8656 22.5914 62.8656 20.319C62.8656 18.0466 66.0194 16.067 70.3021 16.067H89.705C89.705 16.067 91.3983 9.35441 91.737 7.95334C92.1533 6.1898 91.6171 5.67398 90.3118 5.67398H66.3228C52.3951 5.67398 46.1368 14.882 46.1368 21.4482C46.1368 28.0145 51.499 33.082 65.328 33.082H68.1572L68.1714 33.096Z" fill="#003478"/>
<path d="M77.5977 0H116.206L96.3514 10.0724C96.3514 10.0724 97.1487 6.77534 97.3885 5.79249C97.6355 4.74692 97.3039 3.95925 95.8081 3.65952C94.3194 3.35979 77.6047 0 77.6047 0L77.5977 0Z" fill="#E6003F"/>
<path d="M145.31 23.1839H151.039V47.5528H162.123V52H145.31V23.1839Z" fill="#9EA3A6"/>
<path d="M166.589 21.6852H172.071V27.3871H166.589V21.6852ZM166.589 31.186H172.071V52H166.589V31.186Z" fill="#9EA3A6"/>
<path d="M176.622 31.1861H181.815V34.0161H181.9C183.621 31.6322 185.95 30.7051 188.814 30.7051C193.802 30.7051 195.976 34.1834 195.976 38.8676V52H190.493V40.8821C190.493 38.3378 190.451 34.9014 186.937 34.9014C182.972 34.9014 182.111 39.1464 182.111 41.8161V52H176.629V31.1861H176.622Z" fill="#9EA3A6"/>
<path d="M200.442 21.6852H205.925V39.5088H206.009L212.557 31.186H219.02L211.167 40.4847L220 52.007H213.044L206.009 41.8997H205.925V52.007H200.442V21.6852Z" fill="#9EA3A6"/>
<path d="M130.154 39.6692V35.1802H141.013V39.6692H130.154Z" fill="#E96600"/>
<path d="M105.333 51.0102V23.8322H126.874V29.3528H113.165V35.0965H124.425V39.7319H113.165V45.4826H127.262V51.0102H105.333Z" fill="#E96600"/>
</g>
<defs>
<clipPath id="clip0_591_3329">
<rect width="220" height="52" fill="white"/>
</clipPath>
</defs>
</svg>
