<svg width="155" height="51" viewBox="0 0 155 51" fill="none" xmlns="http://www.w3.org/2000/svg">
<path d="M37.9268 9.71786H12.1951C10.8481 9.71786 9.7561 10.8056 9.7561 12.1473V20.529H32.0732V30.2468H9.7561V38.6285C9.7561 39.9702 10.8481 41.0579 12.1951 41.0579H37.9268V50.7758H12.1951C5.45994 50.7758 0 45.3373 0 38.6285V12.1473C0 5.43854 5.45994 0 12.1951 0H37.9268V9.71786Z" fill="#EC6800"/>
<path d="M142.805 9.71786H117.073V0H142.805C149.54 0 155 5.43854 155 12.1473V38.6285C155 45.3373 149.54 50.7758 142.805 50.7758H117.073V41.0579H142.805C144.152 41.0579 145.244 39.9702 145.244 38.6285V12.1473C145.244 10.8056 144.152 9.71786 142.805 9.71786Z" fill="#0A1E5A"/>
<rect x="38.0488" y="22.7158" width="10.2439" height="5.10188" fill="#EC6800"/>
<rect x="40.2439" y="41.0586" width="8.53659" height="9.71786" fill="#EC6800"/>
<rect x="50.4067" y="41.0586" width="8.04878" height="9.71786" fill="#F17C2E"/>
<rect x="59.8579" y="41.0586" width="7.56098" height="9.71786" fill="#F4923E"/>
<rect x="68.679" y="41.0586" width="6.82927" height="9.71786" fill="#F9AA33"/>
<rect x="77.3579" y="41.0586" width="6.58537" height="9.71786" fill="#FCB929"/>
<rect x="86.321" y="41.0586" width="6.09756" height="9.71786" fill="#FDCC0E"/>
<rect x="95.7725" y="41.0586" width="5" height="9.71786" fill="#FDD303"/>
<rect x="103.333" y="41.0586" width="4.63415" height="9.71786" fill="#FDD303"/>
<rect x="111.342" y="41.0586" width="3.53659" height="9.71786" fill="#FDD303"/>
<path d="M58.4147 15.791H53.5366V29.1531C53.5366 32.5075 56.2666 35.2267 59.6342 35.2267H73.0488V30.3678H59.6342C58.9607 30.3678 58.4147 29.8239 58.4147 29.1531V15.791Z" fill="#0A1E5A"/>
<rect x="75.8538" y="15.791" width="4.87805" height="19.4357" fill="#0A1E5A"/>
<path fill-rule="evenodd" clip-rule="evenodd" d="M116.341 15.791H111.463V35.2267H116.341V27.9226L126.964 35.3222L134.114 35.2886L121.612 25.8603L134.114 16.432L126.964 16.3984L116.341 23.7979V15.791ZM116.341 25.8049V25.9156L116.382 25.8603L116.341 25.8049Z" fill="#0A1E5A"/>
<path d="M103.903 15.791H108.781V32.2345C108.824 32.522 108.819 32.8175 108.761 33.107C108.608 34.3025 107.583 35.2267 106.342 35.2267C105.734 35.2267 105.178 35.0053 104.751 34.639L88.4148 23.5961V35.2267H83.5367V19.3464C83.4652 18.9133 83.5062 18.4612 83.6688 18.0372C83.9981 17.0836 84.9066 16.3984 85.9757 16.3984C86.1161 16.3984 86.2536 16.4102 86.3875 16.4329C86.7621 16.4841 87.1309 16.6199 87.465 16.8457L103.903 27.9571V15.791Z" fill="#0A1E5A"/>
</svg>
