<svg width="20" height="18" viewBox="0 0 20 18" fill="none" xmlns="http://www.w3.org/2000/svg">
<g clip-path="url(#clip0_442_408)">
<path d="M16.667 4.83334H3.33366C2.41318 4.83334 1.66699 5.57954 1.66699 6.50001V14.8333C1.66699 15.7538 2.41318 16.5 3.33366 16.5H16.667C17.5875 16.5 18.3337 15.7538 18.3337 14.8333V6.50001C18.3337 5.57954 17.5875 4.83334 16.667 4.83334Z" fill="#0A1E5A" stroke="#0A1E5A" stroke-width="2" stroke-linecap="round" stroke-linejoin="round"/>
<path d="M13.3337 16.5V3.16667C13.3337 2.72464 13.1581 2.30072 12.8455 1.98816C12.5329 1.67559 12.109 1.5 11.667 1.5H8.33366C7.89163 1.5 7.46771 1.67559 7.15515 1.98816C6.84259 2.30072 6.66699 2.72464 6.66699 3.16667V16.5" stroke="#0A1E5A" stroke-width="2" stroke-linecap="round" stroke-linejoin="round"/>
<rect x="6.66699" y="5.66667" width="6.66667" height="10" rx="1" fill="white"/>
</g>
<defs>
<clipPath id="clip0_442_408">
<rect width="20" height="18" fill="white"/>
</clipPath>
</defs>
</svg>
