<svg width="20" height="20" viewBox="0 0 20 20" fill="none" xmlns="http://www.w3.org/2000/svg">
<g opacity="0.3">
<path d="M19 14.663C18.9996 15.9085 18.5789 17.1165 17.8075 18.0871C17.0362 19.0576 15.9604 19.7325 14.7583 20L14.1841 18.2568C14.7099 18.1692 15.21 17.9646 15.6482 17.6578C16.0865 17.351 16.452 16.9497 16.7185 16.4827H14.5C14.0226 16.4827 13.5648 16.2908 13.2272 15.9492C12.8896 15.6076 12.7 15.1443 12.7 14.6612V11.0182C12.7 10.5351 12.8896 10.0718 13.2272 9.73022C13.5648 9.38863 14.0226 9.19672 14.5 9.19672H17.1442C16.9246 7.43615 16.0776 5.81719 14.7623 4.6436C13.4469 3.47002 11.7536 2.82247 10 2.82247C8.2464 2.82247 6.55306 3.47002 5.23772 4.6436C3.92237 5.81719 3.07543 7.43615 2.8558 9.19672H5.5C5.97739 9.19672 6.43523 9.38863 6.77279 9.73022C7.11036 10.0718 7.3 10.5351 7.3 11.0182V14.6612C7.3 15.1443 7.11036 15.6076 6.77279 15.9492C6.43523 16.2908 5.97739 16.4827 5.5 16.4827H2.8C2.32261 16.4827 1.86477 16.2908 1.52721 15.9492C1.18964 15.6076 1 15.1443 1 14.6612V10.1075C1 5.07741 5.0293 1 10 1C14.9707 1 19 5.07741 19 10.1075V14.663Z" fill="#0A1E5A"/>
</g>
</svg>
