<svg width="571" height="188" viewBox="0 0 571 188" fill="none" xmlns="http://www.w3.org/2000/svg">
<path d="M139.653 36.7483H44.9046C39.9445 36.7483 35.9236 40.7534 35.9236 45.694V76.5567H118.099V112.34H35.9236V143.202C35.9236 148.143 39.9445 152.148 44.9046 152.148H139.653V187.931H44.9046C20.1045 187.931 0 167.905 0 143.202V45.694C0 20.9911 20.1045 0.965454 44.9046 0.965454H139.653V36.7483Z" fill="#EAEAEA"/>
<path d="M525.832 36.7483H431.083V0.965454H525.832C550.632 0.965454 570.736 20.9911 570.736 45.694V143.202C570.736 167.905 550.632 187.931 525.832 187.931H431.083V152.148H525.832C530.792 152.148 534.813 148.143 534.813 143.202V45.694C534.813 40.7534 530.792 36.7483 525.832 36.7483Z" fill="#EAEAEA"/>
<rect x="140.102" y="84.6082" width="37.7198" height="18.786" fill="#EAEAEA"/>
<rect x="148.186" y="152.148" width="31.4332" height="35.7828" fill="#EAEAEA"/>
<rect x="185.605" y="152.148" width="29.637" height="35.7828" fill="#EAEAEA"/>
<rect x="220.407" y="152.148" width="27.8408" height="35.7828" fill="#EAEAEA"/>
<rect x="252.887" y="152.148" width="25.1466" height="35.7828" fill="#EAEAEA"/>
<rect x="284.844" y="152.148" width="24.2485" height="35.7828" fill="#EAEAEA"/>
<rect x="317.85" y="152.148" width="22.4523" height="35.7828" fill="#EAEAEA"/>
<rect x="352.651" y="152.148" width="18.4109" height="35.7828" fill="#EAEAEA"/>
<rect x="380.492" y="152.148" width="17.0637" height="35.7828" fill="#EAEAEA"/>
<rect x="409.979" y="152.148" width="13.0223" height="35.7828" fill="#EAEAEA"/>
<path d="M215.092 59.113H197.13V108.314C197.13 120.666 207.182 130.679 219.582 130.679H268.977V112.787H219.582C217.102 112.787 215.092 110.785 215.092 108.314V59.113Z" fill="#EAEAEA"/>
<rect x="279.308" y="59.113" width="17.9618" height="71.5657" fill="#EAEAEA"/>
<path fill-rule="evenodd" clip-rule="evenodd" d="M428.391 59.113H410.429V130.679H428.391V103.784L467.505 131.03L493.831 130.907L447.799 96.1898L493.831 61.4731L467.505 61.3496L428.391 88.5959V59.113ZM428.391 95.986V96.3937L428.54 96.1898L428.391 95.986Z" fill="#EAEAEA"/>
<path d="M382.587 59.113H400.549V119.661C400.71 120.72 400.689 121.807 400.476 122.874C399.914 127.276 396.14 130.679 391.568 130.679C389.33 130.679 387.283 129.863 385.711 128.515L325.558 87.8529V130.679H307.596V72.2045C307.333 70.6098 307.484 68.9452 308.082 67.3839C309.295 63.8726 312.64 61.3495 316.577 61.3495C317.094 61.3495 317.6 61.393 318.093 61.4764C319.473 61.6651 320.831 62.1651 322.061 62.9966L382.587 103.911V59.113Z" fill="#EAEAEA"/>
</svg>
