<svg width="161" height="64" viewBox="0 0 161 64" fill="none" xmlns="http://www.w3.org/2000/svg">
<g clip-path="url(#clip0_816_7206)">
<path fill-rule="evenodd" clip-rule="evenodd" d="M153.629 4.46959C153.629 1.99599 151.597 0 149.186 0H123.573C121.115 0 119.129 1.99599 119.129 4.46959V57.2956H153.626V4.46959H153.629ZM130.002 54.0165L135.766 41.7946H131.039L140.964 28.4821L137.515 38.7543H142.714L130.002 54.0165ZM149.093 19.1615C149.093 21.1112 147.533 22.6794 145.597 22.6794H127.168C125.229 22.6794 123.623 21.1112 123.623 19.1615V8.93919C123.623 6.98953 125.229 5.42125 127.168 5.42125H145.597C147.533 5.42125 149.093 6.98953 149.093 8.93919V19.1615Z" fill="#EC6800"/>
<path fill-rule="evenodd" clip-rule="evenodd" d="M93.5657 50.6412V48.8341C93.5657 47.2659 94.8429 45.9827 96.3993 45.9827H102.213V14.0255C102.213 11.9333 100.51 10.2224 98.4314 10.2224H17.7669C9.2625 10.2224 2.31445 17.2119 2.31445 25.7698V45.9792H7.93872C9.49863 45.9792 10.7759 47.2623 10.7759 48.8306V50.6377C10.7759 52.2059 9.49863 53.4891 7.93872 53.4891H2.5971C3.21248 54.8221 4.53268 55.7702 6.09259 55.7702H16.2535C16.1605 55.1999 16.1104 54.6296 16.1104 54.0593C16.1104 47.7827 21.1658 42.6965 27.4054 42.6965C33.6451 42.6965 38.6539 47.7827 38.6539 54.0593C38.6539 54.6296 38.6074 55.1999 38.5609 55.7702H69.3226C69.2761 55.1999 69.2296 54.6296 69.2296 54.0593C69.2296 47.7827 74.2385 42.6965 80.4782 42.6965C86.7178 42.6965 91.7732 47.7827 91.7732 54.0593C91.7732 54.6296 91.7267 55.1999 91.6301 55.7702H98.435C99.9949 55.7702 101.319 54.8185 101.931 53.4891H96.4028C94.8429 53.4891 93.5692 52.2059 93.5692 50.6377L93.5657 50.6412ZM19.2338 34.9477L15.6882 38.7508H3.73125V25.7698C3.73125 22.4407 4.86541 19.3042 6.99061 16.7343H19.2338V34.9442V34.9477ZM44.6574 31.7613H26.4179V16.7379H44.6574V31.7649V31.7613ZM70.0811 31.7613H51.8416V16.7379H70.0811V31.7649V31.7613ZM77.2653 31.7613V16.7379H95.5048V31.7649H77.2653V31.7613Z" fill="#444444"/>
<path fill-rule="evenodd" clip-rule="evenodd" d="M27.4098 44.1257C21.9752 44.1257 17.5352 48.5953 17.5352 54.0629C17.5352 59.5305 21.9788 64.0001 27.4098 64.0001C32.8409 64.0001 37.238 59.5305 37.238 54.0629C37.238 48.5953 32.8445 44.1257 27.4098 44.1257ZM27.4098 57.203C25.6603 57.203 24.29 55.7773 24.29 54.0629C24.29 52.3485 25.6603 50.9264 27.4098 50.9264C29.1594 50.9264 30.5296 52.3057 30.5296 54.0629C30.5296 55.8201 29.1128 57.203 27.4098 57.203Z" fill="#444444"/>
<path fill-rule="evenodd" clip-rule="evenodd" d="M102.968 47.4048H96.3992C95.6443 47.4048 94.9824 48.0713 94.9824 48.8305V50.6376C94.9824 51.3968 95.6443 52.0633 96.3992 52.0633H102.968C103.723 52.0633 104.385 51.3968 104.385 50.6376V48.8305C104.385 48.0713 103.723 47.4048 102.968 47.4048Z" fill="#444444"/>
<path fill-rule="evenodd" clip-rule="evenodd" d="M9.35589 50.6412V48.8342C9.35589 48.075 8.74051 47.4084 7.93909 47.4084H1.37029C0.615378 47.4084 0 48.075 0 48.8342V50.6412C0 51.4004 0.615378 52.0669 1.37029 52.0669H7.93909C8.74409 52.0669 9.35589 51.4004 9.35589 50.6412Z" fill="#444444"/>
<path fill-rule="evenodd" clip-rule="evenodd" d="M80.4746 44.1257C75.04 44.1257 70.6465 48.5953 70.6465 54.0629C70.6465 59.5305 75.04 64.0001 80.4746 64.0001C85.9093 64.0001 90.3493 59.5305 90.3493 54.0629C90.3493 48.5953 85.9057 44.1257 80.4746 44.1257ZM80.4746 57.203C78.7716 57.203 77.3548 55.7773 77.3548 54.0629C77.3548 52.3485 78.7716 50.9264 80.4746 50.9264C82.1777 50.9264 83.5945 52.3057 83.5945 54.0629C83.5945 55.8201 82.2242 57.203 80.4746 57.203Z" fill="#444444"/>
<path fill-rule="evenodd" clip-rule="evenodd" d="M158.07 58.7212H114.69C113.037 58.7212 111.713 60.0542 111.713 61.6688V63.9999H161V61.6688C161 60.0507 159.677 58.7212 158.07 58.7212Z" fill="#EC6800"/>
<path d="M117.713 32.998H103.631V35.7568H117.713V32.998Z" fill="#EC6800"/>
</g>
<defs>
<clipPath id="clip0_816_7206">
<rect width="161" height="64" fill="white"/>
</clipPath>
</defs>
</svg>
