<svg width="84" height="50" viewBox="0 0 84 50" fill="none" xmlns="http://www.w3.org/2000/svg">
<g clip-path="url(#clip0_546_5019)">
<path d="M84 15.0613L42 30.1296L0 15.0613L42 0L84 15.0613Z" fill="#444444"/>
<path d="M41.9987 50V32.7419L20.1484 24.8909V42.149L41.9987 50Z" fill="#444444"/>
<path d="M42 50V32.7419L63.8572 24.8909V42.149L42 50Z" fill="#444444"/>
<path d="M78.8074 15.0613H78.1133V45.9302H78.8074V15.0613Z" fill="#444444"/>
<path d="M80.4065 48.0494V38.4313C80.4065 37.3579 79.5364 36.4878 78.463 36.4878C77.3897 36.4878 76.5195 37.3579 76.5195 38.4313V48.0495C76.5195 49.1228 77.3897 49.9929 78.463 49.9929C79.5364 49.9929 80.4065 49.1228 80.4065 48.0494Z" fill="#EC6800"/>
</g>
<defs>
<clipPath id="clip0_546_5019">
<rect width="84" height="50" fill="white"/>
</clipPath>
</defs>
</svg>
