<svg width="60" height="58" viewBox="0 0 60 58" fill="none" xmlns="http://www.w3.org/2000/svg">
<g clip-path="url(#clip0_546_5045)">
<path d="M2.19446 12H57.8055C59.016 12 60 12.8321 60 13.8557V24.1443C60 25.1679 59.016 26 57.8055 26H2.18665C0.976181 26 0 25.1679 0 24.1509V13.8557C0 12.8321 0.983991 12 2.19446 12Z" fill="#444444"/>
<path d="M55 28H5V58H55V28Z" fill="#444444"/>
<path d="M35 12H25V26H35V12Z" fill="#EC6800"/>
<path d="M30 11.9978C30 11.9978 23.6528 -1.39725 16.537 1.37576C9.42116 4.14878 7.58702 9.43294 10.0148 11.9978H30Z" fill="#EC6800"/>
<path d="M30 12C30 12 36.3462 -1.39505 43.4609 1.37796C50.5756 4.15097 52.4171 9.43513 49.9821 12H30Z" fill="#EC6800"/>
</g>
<defs>
<clipPath id="clip0_546_5045">
<rect width="60" height="58" fill="white"/>
</clipPath>
</defs>
</svg>
