<svg width="76" height="52" viewBox="0 0 76 52" fill="none" xmlns="http://www.w3.org/2000/svg">
<g clip-path="url(#clip0_816_8486)">
<path d="M55.0563 24.2415C55.0563 24.2415 44.8211 24.0187 33.2412 30.0451C21.6709 36.0619 10.9907 37.1761 14.5411 40.0731C18.1011 42.9701 22.3287 40.3056 31.0161 37.6218C31.0161 37.6218 33.9087 38.2904 31.0161 40.0731C28.1235 41.8558 22.1159 43.6386 18.9912 43.6386C15.8664 43.6386 3.18363 41.633 3.18363 41.633C3.18363 41.633 -2.379 43.8614 8.74625 47.8726C18.4494 51.3703 19.0105 51.6513 19.0008 51.6609C19.175 51.6803 30.4163 52.7558 39.6841 50.9924C49.0294 49.2097 58.6067 38.0675 65.9494 37.1761C69.5869 36.7304 71.0961 36.7304 75.9815 36.837V24.2415H55.037H55.0563Z" fill="#444444"/>
<path d="M38.3773 17.343C38.6288 17.3721 38.861 17.3914 39.1415 17.4496C40.8539 17.8178 43.0886 18.7769 45.2653 21.2379C45.4684 21.4704 45.7877 21.5383 46.0586 21.4123C46.1263 21.3832 46.194 21.3445 46.252 21.296C46.5326 21.0441 46.5616 20.5984 46.3101 20.3078C43.669 17.3042 40.8635 16.3063 38.8417 15.9962C38.0677 12.7796 34.7301 1.26921 26.6522 0.145308C17.2296 -1.18206 5.3111 7.14065 0 4.93159C0 4.93159 12.8279 36.7594 38.3773 17.343ZM3.04735 6.62714C3.25051 6.29772 3.6665 6.20083 4.00509 6.39461C14.5402 12.8086 22.4827 15.0467 27.7551 15.6959C33.0372 16.3354 35.5524 15.3859 35.5718 15.4246C35.9394 15.2987 36.3361 15.4924 36.4521 15.8509C36.4521 15.8703 36.4521 15.8897 36.4521 15.909C36.5392 16.2385 36.3844 16.5873 36.0652 16.7229C36.0652 16.7229 36.0458 16.7229 36.0362 16.7423C36.0362 16.7423 35.8427 16.8004 35.5718 16.8779C33.2984 17.4496 22.3279 19.2226 3.29888 7.59603C2.97963 7.39256 2.87322 6.96625 3.0667 6.63683L3.04735 6.62714Z" fill="#EC6800"/>
</g>
<defs>
<clipPath id="clip0_816_8486">
<rect width="76" height="52" fill="white"/>
</clipPath>
</defs>
</svg>
