<svg width="64" height="52" viewBox="0 0 64 52" fill="none" xmlns="http://www.w3.org/2000/svg">
<g clip-path="url(#clip0_816_8505)">
<path d="M33.8619 41.1318H28.9336V49.3492H33.8619V41.1318Z" fill="#EC6800"/>
<path d="M43.1279 46.0679H19.6673C18.6106 46.0679 17.7539 46.9171 17.7539 47.9646V50.1034C17.7539 51.1509 18.6106 52.0001 19.6673 52.0001H43.1279C44.1847 52.0001 45.0413 51.1509 45.0413 50.1034V47.9646C45.0413 46.9171 44.1847 46.0679 43.1279 46.0679Z" fill="#EC6800"/>
<path d="M4.71778 20.7346L0.0676776 37.4901C-0.233245 38.5651 0.442411 39.4431 1.57229 39.4431H11.7355L16.925 20.7346H4.71778Z" fill="#444444"/>
<path d="M31.2224 18.7085L36.4119 0H24.8008L19.6113 18.7085H31.2224Z" fill="#444444"/>
<path d="M44.9509 18.7085L50.1461 0H38.535L33.3398 18.7085H44.9509Z" fill="#444444"/>
<path d="M41.3164 39.4431H51.4796C52.6038 39.4431 53.7678 38.5651 54.0687 37.4901L58.7188 20.7346H46.5116L41.3221 39.4431H41.3164Z" fill="#444444"/>
<path d="M22.6817 0H12.5185C11.3943 0 10.2303 0.878017 9.9294 1.95303L5.2793 18.7085H17.4865L22.6817 0Z" fill="#444444"/>
<path d="M59.2815 18.7085L63.9316 1.95303C64.2325 0.878017 63.5568 0 62.4269 0H52.2637L47.0742 18.7085H59.2815Z" fill="#444444"/>
<path d="M19.0489 20.7346L13.8594 39.4431H25.4648L30.6599 20.7346H19.0489Z" fill="#444444"/>
<path d="M32.7774 20.7346L27.5879 39.4431H39.199L44.3885 20.7346H32.7774Z" fill="#444444"/>
</g>
<defs>
<clipPath id="clip0_816_8505">
<rect width="64" height="52" fill="white"/>
</clipPath>
</defs>
</svg>
