<svg width="71" height="66" viewBox="0 0 71 66" fill="none" xmlns="http://www.w3.org/2000/svg">
<g clip-path="url(#clip0_816_8542)">
<path d="M35.5018 36.9082C29.7504 36.9082 27.6666 30.9671 27.6333 25.4102C27.5722 15.9997 33.4458 2.43722 34.1181 0.923277C34.1404 0.8774 34.1626 0.837258 34.1793 0.80285C34.3237 0.544791 34.5293 0.332609 34.7794 0.194978C34.9961 0.0688157 35.2462 0 35.5074 0C36.0241 0 36.502 0.269528 36.7799 0.71683C36.8577 0.837258 36.9132 0.969154 36.9521 1.10105C38.308 3.97984 43.4314 16.6878 43.3703 25.4045C43.337 30.9613 41.2531 36.9024 35.5018 36.9024V36.9082Z" fill="#EC6800"/>
<path d="M1.51704 66C0.827989 66 0.227849 65.524 0.050029 64.8359C0.0333584 64.7728 0.0222447 64.7097 0.0166878 64.6409C0.00557412 64.595 1.72632e-05 64.5549 1.72632e-05 64.509C-0.0222102 64.0617 0.144496 63.6316 0.45568 63.3162C2.38947 59.841 11.3749 49.1287 17.593 45.4757C20.1214 43.9905 22.7276 43.1704 24.9281 43.1704C27.7065 43.1704 29.8626 44.4091 31.1796 46.7603C34.0525 51.9043 30.1126 56.7328 25.4615 59.5428C17.6097 64.2968 3.27301 65.8337 1.66152 65.9943H1.51704V66Z" fill="#EC6800"/>
<path d="M69.4103 65.9999C69.377 65.9999 69.3325 65.9942 69.2936 65.9884C68.6657 65.9254 53.601 64.4286 45.538 59.5484C40.8925 56.7442 36.9527 51.9099 39.8256 46.7659C41.137 44.4204 43.2986 43.176 46.0715 43.176C48.272 43.176 50.8782 43.9961 53.4065 45.4813C61.3139 50.1207 69.777 62.1634 70.7162 63.5225C70.8606 63.7347 70.9495 63.9698 70.9829 64.2164C70.9829 64.2279 70.9829 64.2394 70.9829 64.2566C71.0662 64.9791 70.6661 65.6558 70.0049 65.9081C69.9049 65.9426 69.8326 65.9655 69.7548 65.977C69.6604 65.9942 69.5714 66.0056 69.4825 66.0056C69.4547 66.0056 69.4325 66.0056 69.4047 66.0056L69.4103 65.9999Z" fill="#EC6800"/>
<path d="M40.1374 42.9984C40.1374 45.6421 38.0591 47.7868 35.4974 47.7868C32.9357 47.7868 30.8574 45.6421 30.8574 42.9984C30.8574 40.3547 32.9357 38.21 35.4974 38.21C38.0591 38.21 40.1374 40.3547 40.1374 42.9984Z" fill="#444444"/>
</g>
<defs>
<clipPath id="clip0_816_8542">
<rect width="71" height="66" fill="white"/>
</clipPath>
</defs>
</svg>
