<svg width="62" height="56" viewBox="0 0 62 56" fill="none" xmlns="http://www.w3.org/2000/svg">
<g clip-path="url(#clip0_546_5032)">
<path d="M0 16C0 13.2386 2.23858 11 5 11H57C59.7614 11 62 13.2386 62 16V51C62 53.7614 59.7614 56 57 56H5C2.23858 56 0 53.7614 0 51V16Z" fill="#444444"/>
<path d="M21.7638 24C19.1365 24 17.0102 21.8785 17 19.2571V4.75308C17 2.12155 19.1365 0 21.7638 0H40.2362C42.8737 0 45 2.13175 45 4.75308V19.2469C45 21.8683 42.8635 23.9898 40.2362 23.9898H21.7638V24ZM21.7638 4.75308V19.2469H40.2362V4.75308H21.7638Z" fill="#444444"/>
<circle cx="31" cy="34" r="14" fill="#F2F3F6"/>
<path d="M40 31H22V37H40V31Z" fill="#EC6800"/>
<path d="M34 25H28V43H34V25Z" fill="#EC6800"/>
</g>
<defs>
<clipPath id="clip0_546_5032">
<rect width="62" height="56" fill="white"/>
</clipPath>
</defs>
</svg>
