<svg width="64" height="55" viewBox="0 0 64 55" fill="none" xmlns="http://www.w3.org/2000/svg">
<g clip-path="url(#clip0_546_5014)">
<path d="M8.98047 29.185V55H55.0012V29.185L31.9908 10.4961L8.98047 29.185ZM36.8985 39.3255H27.0832V29.4941H36.8985V39.3255Z" fill="#444444"/>
<path d="M62.9961 24.7638L54.863 18.0395V3.69433C54.863 3.18421 54.4463 2.76684 53.937 2.76684H47.5015C46.9922 2.76684 46.5755 3.18421 46.5755 3.69433V11.207L33.7508 0.633622C32.7323 -0.201116 31.2507 -0.201116 30.2322 0.633622L1.00235 24.7638C-0.170549 25.7376 -0.34031 27.4844 0.631959 28.6592C1.60423 29.834 3.34814 30.0041 4.52104 29.0302L31.9915 6.35313L59.4774 29.0457C59.9867 29.463 60.6194 29.6794 61.2367 29.6794C62.0392 29.6794 62.8263 29.3394 63.3665 28.6747C64.3387 27.4998 64.169 25.7531 62.9961 24.7792V24.7638Z" fill="#EC6800"/>
</g>
<defs>
<clipPath id="clip0_546_5014">
<rect width="64" height="55" fill="white"/>
</clipPath>
</defs>
</svg>
