<svg width="18" height="18" viewBox="0 0 18 18" fill="none" xmlns="http://www.w3.org/2000/svg">
<path d="M16.0788 8.2875L9.18625 15.18C8.34187 16.0244 7.19664 16.4988 6.0025 16.4988C4.80836 16.4988 3.66314 16.0244 2.81875 15.18C1.97437 14.3356 1.5 13.1904 1.5 11.9963C1.5 10.8021 1.97437 9.65688 2.81875 8.8125L9.71125 1.92C10.2742 1.35708 11.0377 1.04083 11.8338 1.04083C12.6298 1.04083 13.3933 1.35708 13.9563 1.92C14.5192 2.48292 14.8354 3.24641 14.8354 4.0425C14.8354 4.83859 14.5192 5.60208 13.9563 6.165L7.05625 13.0575C6.77479 13.339 6.39305 13.4971 5.995 13.4971C5.59696 13.4971 5.21521 13.339 4.93375 13.0575C4.65229 12.776 4.49417 12.3943 4.49417 11.9963C4.49417 11.5982 4.65229 11.2165 4.93375 10.935L11.3013 4.575" stroke="#888888" stroke-width="2" stroke-linecap="round" stroke-linejoin="round"/>
</svg>
