<svg width="64" height="54" viewBox="0 0 64 54" fill="none" xmlns="http://www.w3.org/2000/svg">
<g clip-path="url(#clip0_546_5027)">
<path d="M9.08195 10.1706C9.03886 5.74021 11.5896 1.94272 15.7948 0.465915C20.4653 -1.17791 25.4202 1.74054 27.135 5.20399C28.8412 1.74054 33.7961 -1.16912 38.4752 0.483496C42.6804 1.9603 45.2225 5.75779 45.1794 10.1882C45.1277 14.9263 42.8269 19.3039 39.8885 22.9696C39.2766 22.6443 38.6907 22.3367 38.165 22.0642L35.5454 20.6928C34.7009 20.2445 33.8133 20.016 32.9171 20.016C30.4871 20.016 28.3414 21.7037 27.6951 24.1211C27.0919 26.3803 28.014 28.6307 30.0562 29.8613C30.4354 30.0899 31.0127 30.4327 31.6763 30.8283C29.0825 32.8061 27.1609 33.9401 27.1609 33.9401H27.1005C27.1005 33.9401 9.21982 23.4882 9.08195 10.1706ZM52.1421 32.2523C50.1602 31.1623 35.7953 23.6377 34.4079 22.908C31.0386 21.1324 28.1518 25.8441 31.2799 27.7252C33.3222 28.9559 40.6985 33.2984 40.6985 33.2984C39.9746 34.995 38.5959 36.63 35.554 36.63L25.9027 36.6476L16.6479 29.5976C15.7086 28.8944 14.3729 29.1053 13.6663 30.0811C13.6232 30.1426 13.5974 30.2042 13.5543 30.2657L9.67654 27.3297C8.73726 26.6264 7.40159 26.8374 6.69498 27.8131C6.5054 28.0681 6.38476 28.3582 6.32444 28.657L5.4024 27.9186C4.48036 27.1802 3.14469 27.356 2.40361 28.3142C1.9986 28.8416 1.86935 29.4833 1.98137 30.0899C1.40402 30.1338 0.835282 30.4151 0.43889 30.9162C-0.293573 31.8656 -0.14708 33.2369 0.766344 33.9753C0.766344 33.9753 10.9605 42.3087 12.391 43.3987C15.9585 46.1237 18.7935 48.6202 21.5424 48.6202L45.2828 48.6027C49.3071 48.6027 50.7634 50.5893 54.0982 53.9912L63.9736 45.2623C59.6994 39.0562 56.9678 34.9159 52.1249 32.2435L52.1421 32.2523Z" fill="#444444"/>
<path d="M9.07866 10.1706C9.03558 5.74021 11.5863 1.94272 15.7915 0.465915C20.462 -1.17791 25.4169 1.74054 27.1317 5.20399C28.8379 1.74054 33.7928 -1.16912 38.472 0.483496C42.6772 1.9603 45.2192 5.75779 45.1761 10.1882C45.1244 14.9263 42.8236 19.3039 39.8852 22.9696C39.2734 22.6443 38.6874 22.3367 38.1617 22.0642L35.5421 20.6928C34.6976 20.2445 33.81 20.016 32.9139 20.016C30.4838 20.016 28.3381 21.7037 27.6918 24.1211C27.0886 26.3803 28.0107 28.6307 30.0529 29.8613C30.4321 30.0899 31.0095 30.4327 31.673 30.8283C29.0792 32.8061 27.1576 33.9401 27.1576 33.9401H27.0972C27.0972 33.9401 9.21654 23.4882 9.07866 10.1706Z" fill="#EC6800"/>
</g>
<defs>
<clipPath id="clip0_546_5027">
<rect width="64" height="54" fill="white"/>
</clipPath>
</defs>
</svg>
