<svg width="68" height="68" viewBox="0 0 68 68" fill="none" xmlns="http://www.w3.org/2000/svg">
<g clip-path="url(#clip0_546_5040)">
<path fill-rule="evenodd" clip-rule="evenodd" d="M28.0056 21.3395H33.3412C40.9782 36.4911 41.7911 52.0862 37.5891 67.9999C33.055 67.9999 28.956 67.8521 24.4219 67.8521C30.662 54.5433 34.761 39.8239 28.0056 21.3281V21.3395Z" fill="#444444"/>
<path fill-rule="evenodd" clip-rule="evenodd" d="M32.1509 21.874C26.9298 32.7258 26.1054 39.4257 27.3992 51.8472C21.9949 42.2353 19.9798 33.2832 21.0904 24.6609C14.1175 30.1323 10.5223 35.4672 6.19431 45.0222C6.4004 33.6813 9.34299 23.2618 18.4112 16.2661C11.6902 18.5184 5.20963 21.5441 0 29.3019C0.721334 18.0975 9.17124 8.73582 21.5255 7.98507C18.3196 5.65319 14.3122 6.64282 7.71712 10.681C12.4573 -1.97947 26.4603 -1.78609 32.1738 4.86831C37.143 -0.705462 47.2302 -2.75297 54.6496 5.56219C47.2416 4.19718 43.1541 4.65218 40.9786 7.74619C51.2719 6.36981 61.1989 9.19082 68 21.1119C59.4241 16.0386 51.604 13.2176 44.4479 14.6736C56.2755 17.87 64.4162 30.1437 64.2445 40.3129C57.8212 31.9978 53.0924 27.6184 45.0547 23.876C48.1347 32.0205 48.2263 41.2002 45.1807 51.779C43.4861 38.6181 40.9443 32.2822 32.1509 21.874Z" fill="#EC6800"/>
</g>
<defs>
<clipPath id="clip0_546_5040">
<rect width="68" height="68" fill="white"/>
</clipPath>
</defs>
</svg>
