<svg width="50" height="52" viewBox="0 0 50 52" fill="none" xmlns="http://www.w3.org/2000/svg">
<g clip-path="url(#clip0_816_8521)">
<path d="M26.3399 31.8086C28.3347 29.5831 30.7013 27.9076 33.1533 26.651C32.5051 19.3436 28.0533 10.4515 16.562 0C16.562 0 -20.0876 29.0835 15.6575 51.0714C15.0345 43.1231 14.6275 29.9767 16.562 14.3626C16.562 14.3626 18.4563 37.4356 17.7679 50.9957C18.5216 50.5769 19.5717 49.9511 20.7776 49.1184C20.5264 42.038 22.3855 36.2244 26.3399 31.8086Z" fill="#EC6800"/>
<path d="M22.4897 52C22.4897 52 49.0398 52 49.9995 24.3649C49.9995 24.3649 49.8437 24.3599 49.5573 24.3599C45.819 24.3599 19.686 25.2985 22.4596 51.6215C23.3841 48.6945 27.5445 37.5567 38.8499 32.1114C38.8499 32.1114 28.0168 42.8707 22.4847 51.9596C22.4847 51.9697 22.4847 51.9798 22.4847 51.995L22.4897 52Z" fill="#444444"/>
</g>
<defs>
<clipPath id="clip0_816_8521">
<rect width="50" height="52" fill="white"/>
</clipPath>
</defs>
</svg>
