<svg width="200" height="39" viewBox="0 0 200 39" fill="none" xmlns="http://www.w3.org/2000/svg">
<g clip-path="url(#clip0_816_7176)">
<path d="M101.391 4.3728C96.7639 4.3728 92.7236 6.79892 90.4534 10.4333V4.3728H79.8431C75.4085 4.3728 71.5029 6.58795 69.1846 9.973V4.3728H61.2773V29.9573H69.1846V24.3571C71.5029 27.7421 75.4085 29.9669 79.8431 29.9669H80.5453H90.463V23.9064C92.7333 27.5407 96.7735 29.9669 101.4 29.9669H102.103H115.416V23.0433H101.968C100.015 23.0433 98.2837 22.094 97.216 20.6364H115.416V13.7129H97.2352C98.303 12.2649 100.025 11.3155 101.968 11.3155H102.863L115.416 11.3059V4.3728H101.4H101.391ZM80.3914 23.0433H80.401C77.1496 23.0433 74.5138 20.4254 74.5138 17.1842C74.5138 13.943 77.1496 11.3155 80.401 11.3155H81.2956L89.9436 11.3059C89.0297 13.0608 88.5007 15.0554 88.5007 17.1746C88.5007 19.2939 89.0297 21.2885 89.9436 23.0529H80.3818L80.3914 23.0433Z" fill="#034EA2"/>
<path d="M190.477 4.80436L189.996 4.68928C188.062 4.22899 186.042 3.98926 183.964 3.98926C181.886 3.98926 179.809 4.23858 177.846 4.70846L177.5 4.79477C174.383 5.60986 171.738 7.55651 170.025 10.1744V4.36324H156.01C149.988 4.36324 144.938 8.4675 143.533 14.0197C142.129 8.45791 137.079 4.35365 131.057 4.35365H129.671H117.041V11.2868H130.489C133.741 11.2964 136.376 13.9334 136.376 17.1747C136.376 20.4159 133.741 23.0338 130.489 23.0338H117.041V23.1968V38.9905H124.948V29.9573H131.057C137.079 29.9573 142.129 25.853 143.533 20.2912C144.938 25.853 149.988 29.9573 156.01 29.9573H156.712H170.025V24.1653C171.738 26.7736 174.393 28.7203 177.5 29.545L177.846 29.6313C179.809 30.1011 181.858 30.3505 183.964 30.3505C186.071 30.3505 188.062 30.1107 189.996 29.6504L190.477 29.5354C195.96 28.0778 200 23.1105 200 17.1747V17.1555C200 11.2196 195.96 6.26194 190.477 4.79477V4.80436ZM169.362 23.0338H156.568C153.316 23.0338 150.681 20.4159 150.681 17.1747C150.681 13.9334 153.316 11.306 156.568 11.306H157.462H169.362C168.448 13.0608 167.928 15.0554 167.928 17.1747V17.1938C167.928 19.3131 168.448 21.2981 169.362 23.0529V23.0338ZM192.439 17.1938C192.439 19.8884 190.611 22.1611 188.129 22.8516C187.86 22.9283 187.591 22.9666 187.312 23.0146C186.225 23.2064 185.109 23.3119 183.964 23.3119C182.819 23.3119 181.713 23.216 180.636 23.0242L179.78 22.8516C177.307 22.1611 175.489 19.8884 175.489 17.2034V17.1842C175.489 14.4896 177.317 12.2169 179.799 11.5265C180.068 11.4498 180.338 11.4114 180.617 11.3635C181.704 11.1717 182.819 11.0662 183.964 11.0662C185.109 11.0662 186.215 11.1621 187.293 11.3539L188.149 11.5265C190.621 12.2169 192.439 14.4896 192.439 17.1747V17.1938Z" fill="#034EA2"/>
<path d="M36.0925 0C32.5141 0 29.1953 1.12196 26.473 3.02065C23.741 1.12196 20.4319 0 16.8534 0C7.54172 0 0 7.51807 0 16.791C0 26.0639 7.54172 33.582 16.8438 33.582C20.4223 33.582 23.741 32.46 26.4634 30.5614C29.1953 32.46 32.5044 33.582 36.0829 33.582C45.385 33.582 52.9267 26.0639 52.9267 16.791C52.9267 7.51807 45.3946 0 36.0925 0Z" fill="white"/>
<path d="M51.9648 11.1621L26.627 30.6765C29.3204 32.5081 32.5815 33.5725 36.083 33.5725C45.3851 33.5725 52.9268 26.0544 52.9268 16.7815C52.9268 14.8061 52.5805 12.917 51.9552 11.1621H51.9648Z" fill="#ED1C24"/>
<path d="M26.4631 6.6838L28.945 5.12073L37.0542 0.0287681C36.7368 0.00958938 36.4097 0 36.0827 0C35.0438 0 34.0337 0.0958938 33.0525 0.268503L28.3293 4.5166L26.4535 6.20433L20.6048 10.1456L1.26953 23.1871C1.5485 23.8488 1.85632 24.4913 2.21225 25.1146L20.095 11.5264L26.4631 6.6838Z" fill="#ED1C24"/>
<path d="M16.8438 0C7.54172 0 0 7.51807 0 16.791C0 18.7664 0.346304 20.6555 0.971574 22.42L26.2998 2.89599C23.6064 1.07401 20.355 0 16.8438 0Z" fill="#ED1C24"/>
<path d="M26.4635 13.5786L32.1679 9.82917L44.0769 2.00424C43.3746 1.63025 42.6532 1.30422 41.8932 1.02612L31.7446 8.96613L26.4635 13.0992L19.2777 17.8938L4.25195 27.9435C4.73293 28.4805 5.23315 28.9792 5.78146 29.449L19.3931 19.0062L26.4635 13.5786Z" fill="#ED1C24"/>
<path d="M26.4638 17.0308L33.1494 12.6005L46.5975 3.67278C46.0203 3.21249 45.4047 2.79056 44.7698 2.40698L32.8608 11.6128L26.4638 16.5609L19.7782 21.0008L6.33008 29.9093C6.90725 30.3696 7.5229 30.7915 8.15779 31.1751L20.0668 21.9693L26.4638 17.0212V17.0308Z" fill="#ED1C24"/>
<path d="M26.463 20.4734L33.6392 15.6787L48.6745 5.63859C48.2032 5.10158 47.6933 4.60294 47.1546 4.13306L33.5334 14.5663L26.463 19.9843L20.7586 23.7337L8.84961 31.5587C9.55184 31.9327 10.2733 32.2683 11.0332 32.5368L21.1819 24.5872L26.463 20.4542V20.4734Z" fill="#ED1C24"/>
<path d="M26.4633 10.1359L30.7633 7.34535L40.9984 0.728683C40.1423 0.46977 39.2477 0.268393 38.3338 0.15332L30.2438 6.63574L26.4633 9.66598L19.4218 14.3935L2.56836 25.6994C2.94352 26.294 3.35716 26.8693 3.80928 27.4159L19.2968 15.6114L26.4729 10.1359H26.4633Z" fill="#ED1C24"/>
<path d="M26.4627 23.916L33.5042 19.1884L50.3577 7.88251C49.9825 7.27838 49.5689 6.71261 49.1168 6.16602L33.6293 17.9705L26.4531 23.4461L22.1435 26.2366L11.918 32.8628C12.7741 33.1218 13.6687 33.3135 14.5826 33.4382L22.6726 26.9558L26.4531 23.9255L26.4627 23.916Z" fill="#ED1C24"/>
<path d="M51.6674 10.395C51.3884 9.73333 51.0806 9.09084 50.7247 8.46753L32.8515 22.0365L26.4738 26.8791L23.9823 28.4422L15.873 33.5438C16.2001 33.5629 16.5272 33.5725 16.8542 33.5725C17.8932 33.5725 18.9128 33.4766 19.9036 33.2944L24.6076 29.0463L26.4834 27.349L32.3321 23.4078L51.677 10.3854L51.6674 10.395Z" fill="#ED1C24"/>
</g>
<defs>
<clipPath id="clip0_816_7176">
<rect width="200" height="39" fill="white"/>
</clipPath>
</defs>
</svg>
