<svg width="369" height="66" viewBox="0 0 369 66" fill="none" xmlns="http://www.w3.org/2000/svg">
<g clip-path="url(#clip0_1218_4410)">
<path d="M263.736 0.0878161V43.1891L202.197 1.19137C197.663 -1.9061 191.572 1.39202 191.572 6.93486V66H207.238V22.8988L268.79 64.7209C273.324 67.8059 279.415 64.5077 279.415 58.9649V0.0878161H263.749H263.736Z" fill="#003478"/>
<path d="M180.342 0.0878906H164.676V66.0001H180.342V0.0878906Z" fill="#003478"/>
<path d="M153.619 66.0001V51.0394H106.72C103.965 51.0394 101.717 48.7696 101.717 45.9606V0.0878906H86.0508V48.0548C86.0508 57.9617 93.9702 66.0001 103.73 66.0001H153.619Z" fill="#003478"/>
<path d="M368.568 0.0878906H344.662L306.72 27.4886H306.695V0.0878906H290.115V66.0001H306.695V40.493L344.106 66.0001H368.061C368.482 66.0001 368.654 65.4483 368.309 65.2101L323.943 34.0096L368.815 0.877934C369.149 0.627127 368.976 0.0878906 368.568 0.0878906Z" fill="#003478"/>
<path d="M0 17.9704V48.0171C0 58.9398 6.48626 65.9874 16.5183 65.9874H56.5849V54.0741H17.4449C13.5285 53.8609 12.6513 51.5033 12.6513 48.6316V38.8125H49.4562V27.175H12.6389V17.3559C12.6389 14.4841 13.5161 12.1265 17.4326 11.9134H56.5725V0H16.5183C6.48626 0 0 7.04769 0 17.9704Z" fill="#E96600"/>
<path d="M76.4152 27.6641H60.1934V38.3234H76.4152V27.6641Z" fill="#E96600"/>
</g>
<defs>
<clipPath id="clip0_1218_4410">
<rect width="369" height="66" fill="white"/>
</clipPath>
</defs>
</svg>
