<svg width="154" height="23" viewBox="0 0 154 23" fill="none" xmlns="http://www.w3.org/2000/svg">
<path d="M144 0H154V5.5V23H144V22H153V1H144V0Z" fill="#DDDDDD"/>
<g clip-path="url(#clip0_1227_3966)">
<path d="M92.9083 0.0207323V15.0498L71.2315 0.406094C69.6356 -0.668862 67.4941 0.466941 67.4941 2.41403V23.0005H73.0093V7.97135L94.6861 22.534C96.282 23.6089 98.4234 22.4528 98.4234 20.526V0.0207323H92.9083Z" fill="#003478"/>
<path d="M63.5347 0.0205078H58.0195V22.9799H63.5347V0.0205078Z" fill="#003478"/>
<path d="M54.1202 23.0002V17.7877H37.595C36.6253 17.7877 35.8374 16.9967 35.8374 16.0232V0.0205078H30.3223V16.7533C30.3223 20.2013 33.1101 23.0002 36.5445 23.0002H54.1202Z" fill="#003478"/>
<path d="M129.838 0.0205078H121.413L108.04 9.57342V0.0205078H102.201V23.0002H108.04V14.1166L121.211 23.0002H129.656C129.797 23.0002 129.858 22.8177 129.737 22.7163L114.1 11.845L129.939 0.304458C130.06 0.22333 129.999 0.0205078 129.858 0.0205078H129.838Z" fill="#003478"/>
<path d="M0 6.2672V16.7328C0 20.5459 2.28283 23 5.81818 23H19.9394V18.8422H6.14141C4.76768 18.761 4.44444 17.9497 4.44444 16.9356V13.5079H17.4141V9.4515H4.44444V6.02381C4.44444 5.02998 4.74748 4.19841 6.14141 4.11728H19.9394V0H5.81818C2.28283 0 0 2.45414 0 6.2672Z" fill="#E96600"/>
<path d="M26.9301 9.63379H21.2129V13.3454H26.9301V9.63379Z" fill="#E96600"/>
</g>
<defs>
<clipPath id="clip0_1227_3966">
<rect width="130" height="23" fill="white"/>
</clipPath>
</defs>
</svg>
