<svg width="134" height="35" viewBox="0 0 134 35" fill="none" xmlns="http://www.w3.org/2000/svg">
<g clip-path="url(#clip0_1227_3965)">
<path d="M73.9119 11.0161V19.5129L61.5354 11.2384C60.6177 10.6209 59.4023 11.2878 59.4023 12.3746V24.0083H62.5523V15.5115L74.9288 23.7613C75.8465 24.3788 77.0619 23.7119 77.0619 22.6251V11.0161H73.9119Z" fill="#003478"/>
<path d="M57.146 11.0166H53.9961V24.0088H57.146V11.0166Z" fill="#003478"/>
<path d="M51.7872 24.0088V21.0695H42.3622C41.8165 21.0695 41.3453 20.6249 41.3453 20.0568V11.0166H38.1953V20.4767C38.1953 22.428 39.7827 24.0088 41.7421 24.0088H51.7624H51.7872Z" fill="#003478"/>
<path d="M94.9939 11.0166H90.1821L82.5677 16.4259V11.0166H79.2441V24.0088H82.5677V18.97L90.0829 24.0088H94.8946C94.8946 24.0088 95.0187 23.91 94.9442 23.8606L86.0153 17.7103L95.0435 11.1895C95.0435 11.1895 95.0683 11.0413 94.9939 11.0413V11.0166Z" fill="#003478"/>
<path d="M83.3613 28.6768H100.574C102.683 28.5533 103.154 27.3183 103.154 25.7869V23.2181V20.3776V11.7572V9.18843C103.154 7.65702 102.683 6.42202 100.574 6.29852H83.3613V0H101.07C106.502 0 109.999 3.72971 109.999 9.53423V12.3006V22.7241V25.4905C109.999 31.295 106.502 35.0247 101.07 35.0247H83.3613V28.7015V28.6768Z" fill="#003478"/>
<path d="M0 9.53423V25.4658C0 31.2703 3.49718 35 8.92897 35H26.6381V28.6768H9.42503C7.3168 28.5533 6.84555 27.3183 6.84555 25.7869V20.5752H22.7937V14.4001H6.84555V9.21313C6.84555 7.68172 7.3168 6.44672 9.42503 6.32322H26.6381V0H8.92897C3.49718 0 0 3.72971 0 9.53423Z" fill="#E96600"/>
<path d="M33.9049 15.9316H27.0098V19.0685H33.9049V15.9316Z" fill="#E96600"/>
<path d="M58.4088 28.6768H54.0684V35H58.4088V28.6768Z" fill="url(#paint0_linear_1227_3965)"/>
<path d="M70.3646 28.6768H66.793V35H70.3646V28.6768Z" fill="url(#paint1_linear_1227_3965)"/>
<path d="M40.4769 28.6768H34.9707V35H40.4769V28.6768Z" fill="url(#paint2_linear_1227_3965)"/>
<path d="M64.3864 28.6768H60.418V35H64.3864V28.6768Z" fill="url(#paint3_linear_1227_3965)"/>
<path d="M46.4297 28.6768H41.3203V35H46.4297V28.6768Z" fill="url(#paint4_linear_1227_3965)"/>
<path d="M76.3173 28.6768H73.1426V35H76.3173V28.6768Z" fill="url(#paint5_linear_1227_3965)"/>
<path d="M52.4326 28.6768H47.6953V35H52.4326V28.6768Z" fill="url(#paint6_linear_1227_3965)"/>
<path d="M81.6992 28.6768H79.1445V35H81.6992V28.6768Z" fill="url(#paint7_linear_1227_3965)"/>
<path d="M34.3015 28.6768H28.3984V35H34.3015V28.6768Z" fill="#E96600"/>
</g>
<path d="M124 0H134V35H124V34H133V1H124V0Z" fill="#DDDDDD"/>
<defs>
<linearGradient id="paint0_linear_1227_3965" x1="77.3085" y1="31.8384" x2="24.7268" y2="31.8384" gradientUnits="userSpaceOnUse">
<stop offset="0.23" stop-color="#FED900"/>
<stop offset="0.67" stop-color="#F1942F"/>
<stop offset="0.89" stop-color="#E96600"/>
<stop offset="1" stop-color="#E96600"/>
</linearGradient>
<linearGradient id="paint1_linear_1227_3965" x1="77.3093" y1="31.8384" x2="24.7276" y2="31.8384" gradientUnits="userSpaceOnUse">
<stop offset="0.23" stop-color="#FED900"/>
<stop offset="0.67" stop-color="#F1942F"/>
<stop offset="0.89" stop-color="#E96600"/>
<stop offset="1" stop-color="#E96600"/>
</linearGradient>
<linearGradient id="paint2_linear_1227_3965" x1="77.3089" y1="31.8384" x2="24.7272" y2="31.8384" gradientUnits="userSpaceOnUse">
<stop offset="0.23" stop-color="#FED900"/>
<stop offset="0.67" stop-color="#F1942F"/>
<stop offset="0.89" stop-color="#E96600"/>
<stop offset="1" stop-color="#E96600"/>
</linearGradient>
<linearGradient id="paint3_linear_1227_3965" x1="77.3086" y1="31.8384" x2="24.7269" y2="31.8384" gradientUnits="userSpaceOnUse">
<stop offset="0.23" stop-color="#FED900"/>
<stop offset="0.67" stop-color="#F1942F"/>
<stop offset="0.89" stop-color="#E96600"/>
<stop offset="1" stop-color="#E96600"/>
</linearGradient>
<linearGradient id="paint4_linear_1227_3965" x1="77.309" y1="-2.92252e-05" x2="24.7273" y2="-2.92252e-05" gradientUnits="userSpaceOnUse">
<stop offset="0.23" stop-color="#FED900"/>
<stop offset="0.67" stop-color="#F1942F"/>
<stop offset="0.89" stop-color="#E96600"/>
<stop offset="1" stop-color="#E96600"/>
</linearGradient>
<linearGradient id="paint5_linear_1227_3965" x1="77.3094" y1="31.8384" x2="24.7277" y2="31.8384" gradientUnits="userSpaceOnUse">
<stop offset="0.23" stop-color="#FED900"/>
<stop offset="0.67" stop-color="#F1942F"/>
<stop offset="0.89" stop-color="#E96600"/>
<stop offset="1" stop-color="#E96600"/>
</linearGradient>
<linearGradient id="paint6_linear_1227_3965" x1="77.3097" y1="-2.92252e-05" x2="24.728" y2="-2.92252e-05" gradientUnits="userSpaceOnUse">
<stop offset="0.23" stop-color="#FED900"/>
<stop offset="0.67" stop-color="#F1942F"/>
<stop offset="0.89" stop-color="#E96600"/>
<stop offset="1" stop-color="#E96600"/>
</linearGradient>
<linearGradient id="paint7_linear_1227_3965" x1="76.9371" y1="31.8384" x2="24.3554" y2="31.8384" gradientUnits="userSpaceOnUse">
<stop offset="0.23" stop-color="#FED900"/>
<stop offset="0.67" stop-color="#F1942F"/>
<stop offset="0.89" stop-color="#E96600"/>
<stop offset="1" stop-color="#E96600"/>
</linearGradient>
<clipPath id="clip0_1227_3965">
<rect width="110" height="35" fill="white"/>
</clipPath>
</defs>
</svg>
