<svg width="322" height="130" viewBox="0 0 322 130" fill="none" xmlns="http://www.w3.org/2000/svg">
<g clip-path="url(#clip0_1218_4124)">
<path d="M95.336 73.2901C99.5275 73.2901 101.869 73.8834 101.937 76.6808C101.971 78.2236 100.919 80.0206 99.782 80.9022C97.2196 82.8858 94.9627 83.0892 82.9142 83.0892H23.4693L34.9578 35.1954H15.1033C13.7796 35.1954 13.2705 35.5684 12.8802 37.1451L1.98568 82.0551C-0.0676558 90.9727 4.5481 99.1443 14.8317 99.1443H42.102C49.0087 99.1443 58.2402 91.6169 61.9905 84.649C62.1942 84.276 62.3299 84.0217 62.4826 83.6996C62.4826 83.6996 62.5675 83.5978 62.5845 83.7504C61.9905 86.2426 59.9033 95.0924 59.5639 96.5334C59.1226 98.4153 60.1069 99.1273 61.0063 99.1273H90.3299C115.207 99.1273 124.914 87.2937 125.763 73.1036C126.238 65.1184 121.181 59.9646 106.892 59.9646H95.913C92.0099 59.9646 88.022 58.6761 88.022 55.5227C88.022 52.3694 92.3663 49.6059 98.2548 49.6059H124.965C124.965 49.6059 127.307 40.2645 127.765 38.3149C128.342 35.8566 127.595 35.1445 125.797 35.1445H92.7905C73.6148 35.1445 65.0111 47.9614 65.0111 57.0994C65.0111 66.2374 72.393 73.2901 91.416 73.2901H95.319H95.336Z" fill="#C9CACA"/>
<path d="M108.301 27.2274H161.433L134.112 41.248C134.112 41.248 135.215 36.6536 135.537 35.2804C135.877 33.8223 135.418 32.7373 133.365 32.3135C131.312 31.9066 108.318 27.2104 108.318 27.2104L108.301 27.2274Z" fill="#C9CACA"/>
<path d="M201.498 59.5068H209.389V93.414H224.645V99.602H201.498V59.5068Z" fill="#C9CACA"/>
<path d="M230.789 57.4048H238.341V65.3391H230.789V57.4048ZM230.789 70.6286H238.341V99.6022H230.789V70.6286Z" fill="#C9CACA"/>
<path d="M244.585 70.6283H251.73V74.5616H251.848C254.207 71.2387 257.414 69.9502 261.368 69.9502C268.241 69.9502 271.228 74.782 271.228 81.3091V99.585H263.676V84.1234C263.676 80.5801 263.625 75.7992 258.772 75.7992C253.308 75.7992 252.12 81.699 252.12 85.4119V99.585H244.568V70.6114L244.585 70.6283Z" fill="#C9CACA"/>
<path d="M277.387 57.4048H284.938V82.2079H285.057L294.068 70.6286H302.96L292.15 83.5642L304.318 99.6022H294.747L285.057 85.5477H284.938V99.6022H277.387V57.4217V57.4048Z" fill="#C9CACA"/>
<path d="M180.643 82.445V76.2061H195.593V82.445H180.643Z" fill="#C9CACA"/>
<path d="M146.482 98.2292V60.4058H176.128V68.0857H157.258V76.0709H172.752V82.5302H157.258V90.5323H176.655V98.2292H146.482Z" fill="#C9CACA"/>
<path d="M154.254 125.457C154.475 125.185 154.644 124.948 154.763 124.745C154.899 124.541 154.984 124.372 155.052 124.219C155.119 124.066 155.17 123.931 155.187 123.812C155.204 123.693 155.221 123.575 155.221 123.473V123.371C155.221 122.948 155.086 122.608 154.848 122.354C154.593 122.1 154.237 121.981 153.762 121.981C153.422 121.981 153.1 122.066 152.795 122.252C152.489 122.439 152.218 122.778 151.963 123.27L151.369 122.846C151.454 122.659 151.573 122.473 151.709 122.286C151.844 122.1 152.014 121.913 152.201 121.761C152.387 121.608 152.625 121.473 152.862 121.371C153.117 121.269 153.406 121.218 153.728 121.218C154.067 121.218 154.373 121.269 154.661 121.371C154.95 121.473 155.17 121.625 155.374 121.812C155.561 121.998 155.713 122.219 155.815 122.49C155.917 122.761 155.968 123.049 155.968 123.354V123.473C155.968 123.71 155.934 123.931 155.866 124.151C155.798 124.372 155.696 124.575 155.578 124.779C155.459 124.982 155.323 125.185 155.17 125.389C155.018 125.592 154.848 125.813 154.695 126.016L152.302 129.136H156.256V129.898H151.369V129.186L154.237 125.44L154.254 125.457Z" fill="#231916"/>
<path d="M159.108 130C158.564 130 158.106 129.831 157.767 129.509C157.428 129.187 157.258 128.729 157.258 128.169V127.915C157.258 127.389 157.428 126.966 157.767 126.644C158.106 126.321 158.615 126.152 159.277 126.152H160.906V125.559C160.906 125.084 160.788 124.728 160.55 124.49C160.312 124.253 159.973 124.117 159.532 124.117C159.226 124.117 158.921 124.185 158.632 124.304C158.344 124.423 158.072 124.575 157.835 124.779L157.478 124.168C157.75 123.965 158.055 123.778 158.378 123.643C158.717 123.49 159.091 123.422 159.532 123.422C160.177 123.422 160.686 123.592 161.059 123.948C161.432 124.304 161.602 124.813 161.602 125.457V129.933H160.889V129.153C160.838 129.254 160.754 129.356 160.635 129.475C160.516 129.593 160.397 129.678 160.244 129.763C159.922 129.949 159.532 130.034 159.074 130.034L159.108 130ZM160.923 126.83H159.311C158.853 126.83 158.514 126.932 158.31 127.135C158.106 127.339 158.004 127.61 158.004 127.949V128.135C158.004 128.339 158.038 128.525 158.106 128.661C158.174 128.797 158.276 128.932 158.395 129.017C158.514 129.102 158.649 129.187 158.785 129.22C158.938 129.271 159.074 129.288 159.226 129.288C159.447 129.288 159.668 129.254 159.854 129.187C160.041 129.119 160.211 129.034 160.397 128.915C160.55 128.797 160.686 128.661 160.788 128.508C160.889 128.356 160.94 128.135 160.94 127.898V126.813L160.923 126.83Z" fill="#231916"/>
<path d="M315.993 81.1227C315.993 80.4276 315.84 79.9359 315.535 79.6138C315.229 79.3086 314.805 79.1391 314.245 79.1391C313.923 79.1391 313.617 79.2069 313.363 79.3425C313.108 79.4782 312.887 79.6307 312.718 79.8172H312.005L312.243 75.1211H316.214V75.884H312.904L312.786 78.9865C312.955 78.8 313.193 78.6644 313.481 78.5457C313.77 78.427 314.075 78.3762 314.398 78.3762C314.771 78.3762 315.111 78.444 315.399 78.5796C315.687 78.7152 315.925 78.9017 316.112 79.1391C316.298 79.3764 316.451 79.6646 316.536 79.9868C316.638 80.3089 316.672 80.6649 316.672 81.0548V81.2244C316.672 81.5295 316.621 81.8347 316.536 82.1399C316.451 82.445 316.298 82.7163 316.095 82.9536C315.891 83.191 315.62 83.3944 315.28 83.547C314.941 83.6996 314.534 83.7844 314.058 83.7844C313.532 83.7844 313.074 83.6996 312.667 83.5301C312.26 83.3605 311.903 83.1232 311.547 82.835L311.937 82.1568C312.311 82.4789 312.667 82.6993 313.006 82.835C313.346 82.9706 313.702 83.0384 314.058 83.0384C314.398 83.0384 314.686 82.9876 314.924 82.8689C315.161 82.7502 315.348 82.6146 315.501 82.4281C315.654 82.2585 315.755 82.0551 315.823 81.8517C315.891 81.6482 315.925 81.4448 315.925 81.2413V81.0888L315.993 81.1227Z" fill="#231916"/>
<path d="M319.471 83.8011C318.928 83.8011 318.47 83.6316 318.13 83.3095C317.791 82.9874 317.621 82.5296 317.621 81.9701V81.7158C317.621 81.1903 317.791 80.7664 318.13 80.4443C318.47 80.1222 318.979 79.9527 319.64 79.9527H321.27V79.3593C321.27 78.8846 321.151 78.5286 320.913 78.2912C320.676 78.0539 320.336 77.9182 319.895 77.9182C319.59 77.9182 319.284 77.9861 318.996 78.1047C318.707 78.2234 318.436 78.376 318.198 78.5794L317.842 77.9691C318.113 77.7657 318.419 77.5792 318.741 77.4435C319.08 77.291 319.454 77.2231 319.895 77.2231C320.54 77.2231 321.049 77.3927 321.422 77.7487C321.796 78.1047 321.965 78.6133 321.965 79.2576V83.7333H321.253V82.9535C321.202 83.0552 321.117 83.1569 320.998 83.2756C320.879 83.3942 320.76 83.479 320.608 83.5638C320.285 83.7503 319.895 83.835 319.437 83.835L319.471 83.8011ZM321.287 80.6308H319.674C319.216 80.6308 318.877 80.7325 318.673 80.936C318.47 81.1394 318.368 81.4107 318.368 81.7498V81.9362C318.368 82.1397 318.402 82.3262 318.47 82.4618C318.537 82.5974 318.639 82.7331 318.758 82.8178C318.877 82.9026 319.013 82.9874 319.148 83.0213C319.301 83.0721 319.437 83.0891 319.59 83.0891C319.81 83.0891 320.031 83.0552 320.217 82.9874C320.404 82.9195 320.574 82.8348 320.76 82.7161C320.913 82.5974 321.049 82.4618 321.151 82.3092C321.253 82.1566 321.304 81.9362 321.304 81.6989V80.6139L321.287 80.6308Z" fill="#231916"/>
<path d="M311.818 43.2823C311.903 43.1128 312.021 42.9433 312.157 42.7907C312.293 42.6381 312.446 42.4855 312.632 42.3668C312.819 42.2482 313.023 42.1464 313.26 42.0786C313.498 42.0108 313.752 41.96 314.041 41.96C314.397 41.96 314.703 42.0108 314.991 42.1125C315.28 42.2143 315.517 42.3668 315.704 42.5533C315.907 42.7398 316.06 42.9602 316.162 43.2315C316.264 43.5027 316.315 43.7909 316.315 44.0961V44.2148C316.315 44.3843 316.298 44.5539 316.247 44.7403C316.196 44.9268 316.128 45.1133 316.026 45.2829C315.924 45.4524 315.789 45.6219 315.619 45.7745C315.449 45.9271 315.229 46.0458 314.974 46.1475C315.5 46.2492 315.907 46.4866 316.179 46.8426C316.451 47.1986 316.586 47.6394 316.586 48.1311V48.3006C316.586 48.6058 316.535 48.9109 316.45 49.1991C316.366 49.4873 316.213 49.7586 316.009 49.996C315.806 50.2333 315.534 50.4198 315.212 50.5554C314.889 50.6911 314.482 50.7758 314.007 50.7758C313.532 50.7758 313.124 50.6911 312.7 50.5385C312.276 50.3859 311.886 50.1485 311.529 49.8264L311.903 49.1652C312.276 49.4704 312.632 49.6908 312.972 49.8095C313.311 49.9451 313.65 50.0129 314.007 50.0129C314.346 50.0129 314.635 49.962 314.855 49.8603C315.093 49.7586 315.28 49.623 315.432 49.4704C315.585 49.3009 315.687 49.1313 315.755 48.9279C315.823 48.7244 315.857 48.521 315.857 48.3345V48.1819C315.857 47.8598 315.806 47.5885 315.687 47.3851C315.568 47.1817 315.415 47.0121 315.246 46.8935C315.076 46.7748 314.872 46.69 314.669 46.6391C314.465 46.5883 314.261 46.5713 314.075 46.5713H313.209V45.8593H314.109C314.346 45.8593 314.567 45.8084 314.737 45.7067C314.906 45.605 315.059 45.4863 315.178 45.3168C315.297 45.1472 315.381 44.9777 315.449 44.7912C315.517 44.6047 315.534 44.4013 315.534 44.2317V44.13C315.534 43.7062 315.398 43.3671 315.127 43.1128C314.855 42.8585 314.482 42.7398 314.024 42.7398C313.718 42.7398 313.43 42.8076 313.141 42.9433C312.853 43.0789 312.598 43.3502 312.378 43.7401L311.784 43.3162L311.818 43.2823Z" fill="#231916"/>
<path d="M319.471 50.7421C318.928 50.7421 318.47 50.5725 318.13 50.2504C317.791 49.9283 317.621 49.4705 317.621 48.9111V48.6568C317.621 48.1312 317.791 47.7074 318.13 47.3852C318.47 47.0631 318.979 46.8936 319.64 46.8936H321.27V46.3002C321.27 45.8255 321.151 45.4695 320.913 45.2321C320.676 44.9948 320.336 44.8592 319.895 44.8592C319.59 44.8592 319.284 44.927 318.996 45.0456C318.707 45.1643 318.436 45.3169 318.198 45.5204L317.842 44.91C318.113 44.7066 318.419 44.5201 318.741 44.3845C319.08 44.2319 319.454 44.1641 319.895 44.1641C320.54 44.1641 321.049 44.3336 321.422 44.6896C321.796 45.0457 321.965 45.5543 321.965 46.1985V50.6742H321.253V49.8944C321.202 49.9961 321.117 50.0978 320.998 50.2165C320.879 50.3352 320.76 50.4199 320.608 50.5047C320.285 50.6912 319.895 50.776 319.437 50.776L319.471 50.7421ZM321.287 47.5717H319.674C319.216 47.5717 318.877 47.6735 318.673 47.8769C318.47 48.0803 318.368 48.3516 318.368 48.6907V48.8772C318.368 49.0806 318.402 49.2671 318.47 49.4027C318.537 49.5383 318.639 49.674 318.758 49.7587C318.877 49.8435 319.013 49.9283 319.148 49.9622C319.301 50.013 319.437 50.03 319.59 50.03C319.81 50.03 320.031 49.9961 320.217 49.9283C320.404 49.8605 320.574 49.7757 320.76 49.657C320.913 49.5383 321.049 49.4027 321.151 49.2501C321.253 49.0976 321.304 48.8772 321.304 48.6398V47.5548L321.287 47.5717Z" fill="#231916"/>
<path d="M314.245 34.958V27.4476L312.378 28.7022L312.039 28.041L314.432 26.3965H314.992V34.958H314.245Z" fill="#231916"/>
<path d="M319.471 35.0599C318.928 35.0599 318.47 34.8904 318.13 34.5683C317.791 34.2461 317.621 33.7884 317.621 33.2289V32.9746C317.621 32.4491 317.791 32.0252 318.13 31.7031C318.47 31.381 318.979 31.2115 319.64 31.2115H321.27V30.6181C321.27 30.1434 321.151 29.7874 320.913 29.55C320.676 29.3127 320.336 29.177 319.895 29.177C319.59 29.177 319.284 29.2448 318.996 29.3635C318.707 29.4822 318.436 29.6348 318.198 29.8382L317.842 29.2279C318.113 29.0244 318.419 28.838 318.741 28.7023C319.08 28.5497 319.454 28.4819 319.895 28.4819C320.54 28.4819 321.049 28.6515 321.422 29.0075C321.796 29.3635 321.965 29.8721 321.965 30.5164V34.9921H321.253V34.2122C321.202 34.314 321.117 34.4157 320.998 34.5344C320.879 34.653 320.76 34.7378 320.608 34.8226C320.285 35.0091 319.895 35.0938 319.437 35.0938L319.471 35.0599ZM321.287 31.8896H319.674C319.216 31.8896 318.877 31.9913 318.673 32.1948C318.47 32.3982 318.368 32.6695 318.368 33.0085V33.195C318.368 33.3985 318.402 33.585 318.47 33.7206C318.537 33.8562 318.639 33.9918 318.758 34.0766C318.877 34.1614 319.013 34.2461 319.148 34.2801C319.301 34.3309 319.437 34.3479 319.59 34.3479C319.81 34.3479 320.031 34.314 320.217 34.2462C320.404 34.1783 320.574 34.0936 320.76 33.9749C320.913 33.8562 321.049 33.7206 321.151 33.568C321.253 33.4154 321.304 33.195 321.304 32.9577V31.8726L321.287 31.8896Z" fill="#231916"/>
<path d="M77.4669 4.23839C77.6875 3.96714 77.8572 3.72979 77.976 3.52634C78.1117 3.3229 78.1966 3.15336 78.2645 3.00078C78.3323 2.8482 78.3832 2.71257 78.4002 2.5939C78.4172 2.47522 78.4342 2.35655 78.4342 2.25483V2.1531C78.4342 1.72926 78.2984 1.39019 78.0608 1.13589C77.8063 0.881586 77.4499 0.762911 76.9748 0.762911C76.6354 0.762911 76.3129 0.847679 76.0075 1.03417C75.702 1.22066 75.4305 1.55973 75.176 2.05138L74.582 1.62754C74.6669 1.44105 74.7857 1.25456 74.9214 1.06808C75.0572 0.881586 75.2269 0.695096 75.4135 0.542514C75.6002 0.389932 75.8378 0.254304 76.0754 0.152582C76.3299 0.0508607 76.6184 0 76.9408 0C77.2802 0 77.5857 0.0508607 77.8742 0.152582C78.1626 0.254304 78.3832 0.406886 78.5869 0.593375C78.7735 0.779864 78.9263 1.00026 79.0281 1.27152C79.1299 1.54278 79.1808 1.83099 79.1808 2.13615V2.25483C79.1808 2.49218 79.1469 2.71257 79.079 2.93297C79.0111 3.15336 78.9093 3.35681 78.7905 3.56025C78.6717 3.76369 78.536 3.96714 78.3832 4.17058C78.2305 4.37402 78.0608 4.59442 77.9081 4.79786L75.5154 7.91732H79.4693V8.68023H74.582V7.96818L77.4499 4.22144L77.4669 4.23839Z" fill="#231916"/>
<path d="M85.7319 5.06925C85.7319 6.27296 85.5283 7.2054 85.104 7.84964C84.6798 8.49388 84.018 8.81599 83.1016 8.81599C82.1853 8.81599 81.5234 8.49388 81.1162 7.84964C80.7089 7.2054 80.4883 6.27296 80.4883 5.06925V3.74688C80.4883 2.56013 80.6919 1.62768 81.1162 0.983443C81.5404 0.339208 82.2022 0.0170898 83.1016 0.0170898C84.001 0.0170898 84.6798 0.339208 85.104 0.983443C85.5283 1.62768 85.7319 2.56013 85.7319 3.74688V5.06925ZM84.9683 3.72992C84.9683 2.6788 84.8156 1.91589 84.5101 1.44119C84.2046 0.96649 83.7295 0.746093 83.1186 0.746093C82.5077 0.746093 82.0665 0.983443 81.761 1.44119C81.4386 1.91589 81.2859 2.66185 81.2859 3.71297V5.06925C81.2859 6.12038 81.4386 6.90024 81.761 7.35799C82.0834 7.83269 82.5246 8.05308 83.1186 8.05308C83.7125 8.05308 84.1877 7.81573 84.5101 7.35799C84.8325 6.90024 84.9853 6.13733 84.9853 5.06925V3.71297L84.9683 3.72992Z" fill="#231916"/>
<path d="M88.4806 8.78209C87.9375 8.78209 87.4793 8.61255 87.1399 8.29043C86.8006 7.96832 86.6309 7.51057 86.6309 6.9511V6.6968C86.6309 6.17124 86.8006 5.7474 87.1399 5.42528C87.4793 5.10316 87.9884 4.93363 88.6503 4.93363H90.2793V4.34025C90.2793 3.86555 90.1606 3.50953 89.923 3.27218C89.6854 3.01787 89.346 2.8992 88.9048 2.8992C88.5993 2.8992 88.2939 2.96701 88.0054 3.08569C87.7169 3.20436 87.4454 3.35694 87.2078 3.56039L86.8515 2.95006C87.123 2.74662 87.4284 2.56013 87.7509 2.4245C88.0903 2.27192 88.4636 2.2041 88.9048 2.2041C89.5496 2.2041 90.0587 2.37364 90.4321 2.72966C90.8054 3.08569 90.9751 3.59429 90.9751 4.23853V8.71427H90.2624V7.93441C90.2115 8.03613 90.1266 8.13785 90.0078 8.25653C89.906 8.35825 89.7703 8.45997 89.6175 8.54474C89.2951 8.73123 88.9048 8.81599 88.4466 8.81599L88.4806 8.78209ZM90.2793 5.61177H88.6672C88.209 5.61177 87.8696 5.71349 87.666 5.91693C87.4624 6.12038 87.3606 6.39163 87.3606 6.73071V6.91719C87.3606 7.12064 87.3945 7.30713 87.4624 7.44276C87.5303 7.57838 87.6321 7.71401 87.7509 7.79878C87.8696 7.88355 88.0054 7.96832 88.1412 8.00222C88.2939 8.05308 88.4296 8.07004 88.5824 8.07004C88.803 8.07004 89.0236 8.03613 89.2103 7.96832C89.3969 7.9005 89.5666 7.81573 89.7533 7.69706C89.906 7.57838 90.0418 7.44276 90.1436 7.29017C90.2454 7.12064 90.2963 6.9172 90.2963 6.67984V5.59482L90.2793 5.61177Z" fill="#231916"/>
<path d="M146.262 27.2446V98.6531" stroke="#00AAE8" stroke-width="0.25"/>
<path d="M79.7754 27.1426V99.3817" stroke="#231916" stroke-width="0.25"/>
<path d="M146.211 106.926V116.573H160.601V106.926" stroke="#231916" stroke-width="0.25"/>
<path d="M153.27 115.318C152.472 115.318 151.811 115.963 151.811 116.776C151.811 117.59 152.472 118.234 153.27 118.234C154.068 118.234 154.729 117.59 154.729 116.776C154.729 115.963 154.068 115.318 153.27 115.318Z" fill="#231916"/>
<path d="M160.517 22.3448V12.6982H0.289062V22.3448" stroke="#231916" stroke-width="0.25"/>
<path d="M80.0453 14.1055C80.8429 14.1055 81.5047 13.4612 81.5047 12.6475C81.5047 11.8337 80.8429 11.1895 80.0453 11.1895C79.2478 11.1895 78.5859 11.8337 78.5859 12.6475C78.5859 13.4612 79.2478 14.1055 80.0453 14.1055Z" fill="#231916"/>
<path d="M120.484 23.0059V31.4487" stroke="#231916" stroke-width="0.25"/>
<path d="M123.471 23.0059V31.4487" stroke="#231916" stroke-width="0.25"/>
<path d="M38.5547 23.0059V31.4487" stroke="#231916" stroke-width="0.25"/>
<path d="M41.541 23.0059V31.4487" stroke="#231916" stroke-width="0.25"/>
<path fill-rule="evenodd" clip-rule="evenodd" d="M304.555 99.4159H0.203125V27.1768H304.555V99.4159Z" stroke="#231916" stroke-width="0.25"/>
<path d="M304.555 59.4902H0.203125" stroke="#231916" stroke-width="0.25"/>
<path d="M0.408203 35.0093H304.268" stroke="#231916" stroke-width="0.25"/>
</g>
<defs>
<clipPath id="clip0_1218_4124">
<rect width="322" height="130" fill="white"/>
</clipPath>
</defs>
</svg>
