<svg width="314" height="100" viewBox="0 0 314 100" fill="none" xmlns="http://www.w3.org/2000/svg">
<g clip-path="url(#clip0_1218_4346)">
<path d="M210.978 31.4487V55.7377L175.664 32.0843C173.079 30.3446 169.555 32.1847 169.555 35.3296V68.5848H178.551V44.2958L213.865 67.8488C216.45 69.5885 219.941 67.715 219.941 64.6036V31.4487H210.945H210.978Z" fill="#003478"/>
<path d="M163.143 31.4482H154.146V68.5844H163.143V31.4482Z" fill="#003478"/>
<path d="M147.803 68.551V60.12H120.881C119.303 60.12 118.028 58.8487 118.028 57.2763V31.4482H109.031V58.4807C109.031 64.0678 113.563 68.5844 119.169 68.5844H147.803V68.551Z" fill="#003478"/>
<path d="M271.132 31.4482H257.403L235.65 46.8715V31.4482H226.15V68.5844H235.65V54.1983L257.101 68.5844H270.83C271.065 68.5844 271.166 68.2833 270.964 68.1495L245.519 50.5851L271.266 31.9166C271.468 31.7828 271.367 31.4817 271.132 31.4817V31.4482Z" fill="#003478"/>
<path d="M237.967 81.9338H287.078C293.12 81.5992 294.463 78.0529 294.463 73.6701V66.3433V58.2134V33.5898V26.263C294.463 21.9137 293.12 18.3339 287.078 17.9993H237.967V0H288.487C303.963 0 314 10.6725 314 27.2332V35.1288V64.8712V72.7668C314 89.3275 303.996 100 288.487 100H237.967V81.9338Z" fill="#003478"/>
<path d="M0 27.2332V72.7668C0 89.3275 10.0034 100 25.5121 100H76.0327V81.9338H26.922C20.8796 81.5992 19.5369 78.0529 19.5369 73.6701V58.7822H65.0558V41.1509H19.5033V26.2964C19.5033 21.9471 20.8461 18.3673 26.8884 18.0328H75.9991V0H25.5121C10.0034 0 0 10.6725 0 27.2332Z" fill="#E96600"/>
<path d="M96.7789 45.5332H77.0742V54.4994H96.7789V45.5332Z" fill="#E96600"/>
<path d="M166.701 81.9336H154.314V99.9998H166.701V81.9336Z" fill="url(#paint0_linear_1218_4346)"/>
<path d="M200.842 81.9336H190.637V99.9998H200.842V81.9336Z" fill="url(#paint1_linear_1218_4346)"/>
<path d="M115.511 81.9336H99.8008V99.9998H115.511V81.9336Z" fill="url(#paint2_linear_1218_4346)"/>
<path d="M183.756 81.9336H172.477V99.9998H183.756V81.9336Z" fill="url(#paint3_linear_1218_4346)"/>
<path d="M132.596 81.9336H117.994V99.9998H132.596V81.9336Z" fill="url(#paint4_linear_1218_4346)"/>
<path d="M217.894 81.9336H208.797V99.9998H217.894V81.9336Z" fill="url(#paint5_linear_1218_4346)"/>
<path d="M149.649 81.9336H136.154V99.9998H149.649V81.9336Z" fill="url(#paint6_linear_1218_4346)"/>
<path d="M233.167 81.9336H225.916V99.9998H233.167V81.9336Z" fill="url(#paint7_linear_1218_4346)"/>
<path d="M97.9201 81.9336H81.0352V99.9998H97.9201V81.9336Z" fill="#E96600"/>
</g>
<defs>
<linearGradient id="paint0_linear_1218_4346" x1="220.679" y1="90.9667" x2="70.5946" y2="90.9667" gradientUnits="userSpaceOnUse">
<stop offset="0.23" stop-color="#FED900"/>
<stop offset="0.67" stop-color="#F1942F"/>
<stop offset="0.89" stop-color="#E96600"/>
<stop offset="1" stop-color="#E96600"/>
</linearGradient>
<linearGradient id="paint1_linear_1218_4346" x1="220.681" y1="90.9667" x2="70.5956" y2="90.9667" gradientUnits="userSpaceOnUse">
<stop offset="0.23" stop-color="#FED900"/>
<stop offset="0.67" stop-color="#F1942F"/>
<stop offset="0.89" stop-color="#E96600"/>
<stop offset="1" stop-color="#E96600"/>
</linearGradient>
<linearGradient id="paint2_linear_1218_4346" x1="220.681" y1="90.9667" x2="70.5962" y2="90.9667" gradientUnits="userSpaceOnUse">
<stop offset="0.23" stop-color="#FED900"/>
<stop offset="0.67" stop-color="#F1942F"/>
<stop offset="0.89" stop-color="#E96600"/>
<stop offset="1" stop-color="#E96600"/>
</linearGradient>
<linearGradient id="paint3_linear_1218_4346" x1="220.681" y1="90.9667" x2="70.5961" y2="90.9667" gradientUnits="userSpaceOnUse">
<stop offset="0.23" stop-color="#FED900"/>
<stop offset="0.67" stop-color="#F1942F"/>
<stop offset="0.89" stop-color="#E96600"/>
<stop offset="1" stop-color="#E96600"/>
</linearGradient>
<linearGradient id="paint4_linear_1218_4346" x1="220.68" y1="90.9667" x2="70.5954" y2="90.9667" gradientUnits="userSpaceOnUse">
<stop offset="0.23" stop-color="#FED900"/>
<stop offset="0.67" stop-color="#F1942F"/>
<stop offset="0.89" stop-color="#E96600"/>
<stop offset="1" stop-color="#E96600"/>
</linearGradient>
<linearGradient id="paint5_linear_1218_4346" x1="220.68" y1="90.9667" x2="70.5951" y2="90.9667" gradientUnits="userSpaceOnUse">
<stop offset="0.23" stop-color="#FED900"/>
<stop offset="0.67" stop-color="#F1942F"/>
<stop offset="0.89" stop-color="#E96600"/>
<stop offset="1" stop-color="#E96600"/>
</linearGradient>
<linearGradient id="paint6_linear_1218_4346" x1="220.68" y1="90.9667" x2="70.595" y2="90.9667" gradientUnits="userSpaceOnUse">
<stop offset="0.23" stop-color="#FED900"/>
<stop offset="0.67" stop-color="#F1942F"/>
<stop offset="0.89" stop-color="#E96600"/>
<stop offset="1" stop-color="#E96600"/>
</linearGradient>
<linearGradient id="paint7_linear_1218_4346" x1="219.605" y1="90.9667" x2="69.5205" y2="90.9667" gradientUnits="userSpaceOnUse">
<stop offset="0.23" stop-color="#FED900"/>
<stop offset="0.67" stop-color="#F1942F"/>
<stop offset="0.89" stop-color="#E96600"/>
<stop offset="1" stop-color="#E96600"/>
</linearGradient>
<clipPath id="clip0_1218_4346">
<rect width="314" height="100" fill="white"/>
</clipPath>
</defs>
</svg>
