<svg width="18" height="19" viewBox="0 0 18 19" fill="none" xmlns="http://www.w3.org/2000/svg">
<path d="M18 11.0375H15.6918C15.5118 11.7786 15.2259 12.4669 14.8341 13.081L16.4647 14.7116L14.2412 16.9351L12.6106 15.3045C11.9965 15.6857 11.3082 15.9716 10.5882 16.141V18.4492H7.41177V16.141C6.69176 15.9716 6.00353 15.6857 5.38941 15.3045L3.75882 16.9351L1.51412 14.6904L3.14471 13.0598C2.76353 12.4457 2.47765 11.7575 2.30824 11.0375H0V7.89275H2.29765C2.46706 7.15157 2.76353 6.46334 3.14471 5.83863L1.51412 4.20804L3.73765 1.98451L5.36824 3.6151C5.98235 3.22334 6.68118 2.93745 7.41177 2.75745V0.449219H10.5882V2.75745C11.3082 2.92687 11.9965 3.21275 12.6106 3.59392L14.2412 1.96334L16.4859 4.20804L14.8553 5.83863C15.2365 6.46334 15.5329 7.15157 15.7024 7.89275H18V11.0375ZM9 12.6257C10.7576 12.6257 12.1765 11.2069 12.1765 9.44922C12.1765 7.69157 10.7576 6.27275 9 6.27275C7.24235 6.27275 5.82353 7.69157 5.82353 9.44922C5.82353 11.2069 7.24235 12.6257 9 12.6257Z" fill="#0A1E5A"/>
</svg>
