<svg width="18" height="18" viewBox="0 0 18 18" fill="none" xmlns="http://www.w3.org/2000/svg">
<g opacity="0.3" clip-path="url(#clip0_1259_4825)">
<path d="M18 10.5882H15.6918C15.5118 11.3294 15.2259 12.0176 14.8341 12.6318L16.4647 14.2624L14.2412 16.4859L12.6106 14.8553C11.9965 15.2365 11.3082 15.5224 10.5882 15.6918V18H7.41177V15.6918C6.69177 15.5224 6.00353 15.2365 5.38941 14.8553L3.75882 16.4859L1.51412 14.2412L3.14471 12.6106C2.76353 11.9965 2.47765 11.3082 2.30824 10.5882H0V7.44353H2.29765C2.46706 6.70235 2.76353 6.01412 3.14471 5.38941L1.51412 3.75882L3.73765 1.53529L5.36824 3.16588C5.98235 2.77412 6.68118 2.48824 7.41177 2.30824V0H10.5882V2.30824C11.3082 2.47765 11.9965 2.76353 12.6106 3.14471L14.2412 1.51412L16.4859 3.75882L14.8553 5.38941C15.2365 6.01412 15.5329 6.70235 15.7024 7.44353H18V10.5882ZM9 12.1765C10.7576 12.1765 12.1765 10.7576 12.1765 9C12.1765 7.24235 10.7576 5.82353 9 5.82353C7.24235 5.82353 5.82353 7.24235 5.82353 9C5.82353 10.7576 7.24235 12.1765 9 12.1765Z" fill="#0A1E5A"/>
</g>
<defs>
<clipPath id="clip0_1259_4825">
<rect width="18" height="18" fill="white"/>
</clipPath>
</defs>
</svg>
