<svg width="24" height="24" viewBox="0 0 24 24" fill="none" xmlns="http://www.w3.org/2000/svg">
<g clip-path="url(#clip0_125_2823)">
<path d="M20 3H19V1H17V3H7V1H5V3H4C2.9 3 2 3.9 2 5V21C2 22.1 2.9 23 4 23H20C21.1 23 22 22.1 22 21V5C22 3.9 21.1 3 20 3ZM20 21H4V9H12H20V21Z" fill="#5A5E6D"/>
<path d="M11.288 13.712C11.4793 13.904 11.7167 14 12 14C12.2833 14 12.521 13.904 12.713 13.712C12.9043 13.5207 13 13.2833 13 13C13 12.7167 12.9043 12.479 12.713 12.287C12.521 12.0957 12.2833 12 12 12C11.7167 12 11.4793 12.0957 11.288 12.287C11.096 12.479 11 12.7167 11 13C11 13.2833 11.096 13.5207 11.288 13.712Z" fill="#5A5E6D"/>
<path d="M7.287 13.712C7.479 13.904 7.71667 14 8 14C8.28333 14 8.521 13.904 8.713 13.712C8.90433 13.5207 9 13.2833 9 13C9 12.7167 8.90433 12.479 8.713 12.287C8.521 12.0957 8.28333 12 8 12C7.71667 12 7.479 12.0957 7.287 12.287C7.09567 12.479 7 12.7167 7 13C7 13.2833 7.09567 13.5207 7.287 13.712Z" fill="#5A5E6D"/>
<path d="M15.288 13.712C15.4793 13.904 15.7167 14 16 14C16.2833 14 16.5207 13.904 16.712 13.712C16.904 13.5207 17 13.2833 17 13C17 12.7167 16.904 12.479 16.712 12.287C16.5207 12.0957 16.2833 12 16 12C15.7167 12 15.4793 12.0957 15.288 12.287C15.096 12.479 15 12.7167 15 13C15 13.2833 15.096 13.5207 15.288 13.712Z" fill="#5A5E6D"/>
<path d="M11.288 17.712C11.4793 17.904 11.7167 18 12 18C12.2833 18 12.521 17.904 12.713 17.712C12.9043 17.5207 13 17.2833 13 17C13 16.7167 12.9043 16.4793 12.713 16.288C12.521 16.096 12.2833 16 12 16C11.7167 16 11.4793 16.096 11.288 16.288C11.096 16.4793 11 16.7167 11 17C11 17.2833 11.096 17.5207 11.288 17.712Z" fill="#5A5E6D"/>
<path d="M7.287 17.712C7.479 17.904 7.71667 18 8 18C8.28333 18 8.521 17.904 8.713 17.712C8.90433 17.5207 9 17.2833 9 17C9 16.7167 8.90433 16.4793 8.713 16.288C8.521 16.096 8.28333 16 8 16C7.71667 16 7.479 16.096 7.287 16.288C7.09567 16.4793 7 16.7167 7 17C7 17.2833 7.09567 17.5207 7.287 17.712Z" fill="#5A5E6D"/>
<path d="M15.288 17.712C15.4793 17.904 15.7167 18 16 18C16.2833 18 16.5207 17.904 16.712 17.712C16.904 17.5207 17 17.2833 17 17C17 16.7167 16.904 16.4793 16.712 16.288C16.5207 16.096 16.2833 16 16 16C15.7167 16 15.4793 16.096 15.288 16.288C15.096 16.4793 15 16.7167 15 17C15 17.2833 15.096 17.5207 15.288 17.712Z" fill="#5A5E6D"/>
</g>
<defs>
<clipPath id="clip0_125_2823">
<rect width="24" height="24" fill="white"/>
</clipPath>
</defs>
</svg>
