<svg width="64" height="76" viewBox="0 0 64 76" fill="none" xmlns="http://www.w3.org/2000/svg">
<path d="M43.4686 17.8486C42.5356 16.4882 40.6883 16.167 39.3448 17.1022L34.1386 20.7867C32.6271 19.4924 29.4549 16.885 28.5126 16.0914C25.7882 13.7485 25.1165 14.0602 24.1555 14.0602C23.9782 14.0602 16.3556 14.0602 16.3182 14.0697C14.4895 13.8146 12.2037 14.2492 10.7389 15.5529L0.905013 25.1891C0.326551 25.756 0 26.5306 0 27.3431V38.2642C0 39.9174 1.32486 41.259 2.95762 41.259C4.59038 41.259 5.91524 39.9174 5.91524 38.2642V28.6185L11.6625 22.9879L10.7295 65H17.3912L20.2275 41.8919H31.7035L30.6585 54.2584H36.891L38.6357 39.6435C38.6357 35.3355 34.6704 34.2774 34.6704 34.2774L26.488 31.9061V22.1565C28.0181 23.4225 30.1174 25.1986 32.058 26.8518C32.6085 27.3242 33.2896 27.5604 33.9613 27.5604C34.5491 27.5604 35.1462 27.3809 35.6594 27.0219L42.7316 22.0243C44.0751 21.0796 44.4016 19.209 43.4686 17.8486Z" fill="white"/>
<path d="M26 6C26 9.30965 23.3175 12 19.9949 12C16.6723 12 14 9.3198 14 6C14 2.6802 16.6825 0 19.9949 0C23.3074 0 26 2.6802 26 6Z" fill="white"/>
<path opacity="0.6" d="M24.5 54C23.6716 54 23 54.6716 23 55.5V65H5.5C4.67157 65 4 65.6716 4 66.5V74.5C4 75.3284 4.67157 76 5.5 76H45.5C46.3284 76 47 75.3284 47 74.5V55.5C47 54.6716 46.3284 54 45.5 54H24.5Z" fill="white"/>
<path d="M43 41.5C43 40.6716 43.6716 40 44.5 40H62.5C63.3284 40 64 40.6716 64 41.5V74.5C64 75.3284 63.3284 76 62.5 76H43V41.5Z" fill="#EC6800"/>
</svg>
