<svg width="76" height="72" viewBox="0 0 76 72" fill="none" xmlns="http://www.w3.org/2000/svg">
<path opacity="0.5" d="M5.36561 1.81006H22.048C22.9822 1.81006 23.7422 2.55938 23.7422 3.48062V58.7552C23.7422 59.6764 22.9822 60.4257 22.048 60.4257H5.36561C4.43132 60.4257 3.67139 59.6764 3.67139 58.7552V3.48062C3.67139 2.55938 4.43132 1.81006 5.36561 1.81006Z" fill="white"/>
<path d="M16.3433 6.9126H11.0731C10.1647 6.9126 9.42822 7.63875 9.42822 8.5345V25.2596C9.42822 26.1553 10.1647 26.8815 11.0731 26.8815H16.3433C17.2517 26.8815 17.9882 26.1553 17.9882 25.2596V8.5345C17.9882 7.63875 17.2517 6.9126 16.3433 6.9126Z" fill="white"/>
<path d="M19.7912 47.042H7.61914V47.6908H19.7912V47.042Z" fill="white"/>
<path d="M19.7912 51.1064H7.61914V51.7552H19.7912V51.1064Z" fill="white"/>
<path d="M19.7912 55.1709H7.61914V55.8197H19.7912V55.1709Z" fill="white"/>
<path opacity="0.5" d="M43.8984 1.81006H27.2128C26.2771 1.81006 25.5186 2.55799 25.5186 3.48062V58.7552C25.5186 59.6778 26.2771 60.4257 27.2128 60.4257H43.8984C44.8341 60.4257 45.5926 59.6778 45.5926 58.7552V3.48062C45.5926 2.55799 44.8341 1.81006 43.8984 1.81006Z" fill="white"/>
<path d="M38.1905 6.9126H32.9203C32.0118 6.9126 31.2754 7.63875 31.2754 8.5345V25.2596C31.2754 26.1553 32.0118 26.8815 32.9203 26.8815H38.1905C39.0989 26.8815 39.8353 26.1553 39.8353 25.2596V8.5345C39.8353 7.63875 39.0989 6.9126 38.1905 6.9126Z" fill="white"/>
<path d="M41.6418 47.042H29.4697V47.6908H41.6418V47.042Z" fill="white"/>
<path d="M41.6418 51.1064H29.4697V51.7552H41.6418V51.1064Z" fill="white"/>
<path d="M41.6418 55.1709H29.4697V55.8197H41.6418V55.1709Z" fill="white"/>
<path d="M75.0589 56.1116C75.1938 57.0199 74.5523 57.873 73.6312 58.006L57.1232 60.4064C56.2021 60.5394 55.3369 59.9068 55.202 58.9986L47.0204 4.31442C46.8855 3.40616 47.527 2.55303 48.4481 2.42004L64.9561 0.0196173C65.8772 -0.113379 66.7424 0.519164 66.8773 1.42743L75.0589 56.1116Z" fill="#EC6800"/>
<path d="M64.4068 23.7997C64.5384 24.682 63.9134 25.5124 63.0186 25.6422L57.8043 26.4012C56.9095 26.531 56.0673 25.9147 55.9357 25.0323L53.4618 8.48891C53.3302 7.60659 53.9553 6.77942 54.8501 6.64642L60.0644 5.88737C60.9592 5.75762 61.7981 6.37394 61.933 7.25626L64.4068 23.7997Z" fill="white"/>
<path d="M69.4165 45.0947L57.374 46.8418L57.4698 47.4836L69.5122 45.7366L69.4165 45.0947Z" fill="white"/>
<path d="M70.0195 49.1113L57.9771 50.8584L58.0728 51.5003L70.1153 49.7532L70.0195 49.1113Z" fill="white"/>
<path d="M70.623 53.1308L58.5806 54.8779L58.6763 55.5198L70.7188 53.7727L70.623 53.1308Z" fill="white"/>
<path d="M75.0259 66H0.974109C0.436124 66 0 66.5104 0 67.14V70.86C0 71.4896 0.436124 72 0.974109 72H75.0259C75.5639 72 76 71.4896 76 70.86V67.14C76 66.5104 75.5639 66 75.0259 66Z" fill="white"/>
</svg>
