<svg width="150" height="36" viewBox="0 0 150 36" fill="none" xmlns="http://www.w3.org/2000/svg">
<g clip-path="url(#clip0_471_1104)">
<path d="M46.4802 22.9126C48.5584 22.9126 49.713 23.207 49.7466 24.6016C49.7611 25.3689 49.2415 26.2617 48.6739 26.7008C47.4039 27.6853 46.2878 27.7914 40.3178 27.7914H10.8768L16.5678 3.96193H6.73007C6.07101 3.96193 5.82567 4.15013 5.62843 4.93673L0.235727 27.2702C-0.779314 31.7099 1.50573 35.7684 6.60018 35.7684H20.1036C23.5239 35.7684 28.1037 32.0236 29.9606 28.5635C30.0616 28.3753 30.1289 28.2499 30.2059 28.0906C30.2059 28.0906 30.2444 28.0424 30.2588 28.1099C29.9654 29.3501 28.9263 33.7464 28.7579 34.4654C28.5414 35.4016 29.0273 35.7539 29.4747 35.7539H44.0028C56.3228 35.7539 61.1334 29.8713 61.5567 22.8113C61.7924 18.8445 59.2909 16.2772 52.2097 16.2772H46.7737C44.8398 16.2772 42.8626 15.6402 42.8626 14.067C42.8626 12.4938 45.013 11.1233 47.933 11.1233H61.1623C61.1623 11.1233 62.3168 6.47614 62.5477 5.50617C62.8315 4.28525 62.4659 3.92815 61.576 3.92815H45.2198C35.7237 3.92815 31.4567 10.3029 31.4567 14.8488C31.4567 19.3946 35.1127 22.9029 44.5415 22.9029H46.4706L46.4802 22.9126Z" fill="#003478"/>
<path d="M52.9072 0H79.2309L65.6939 6.97319C65.6939 6.97319 66.2375 4.69062 66.401 4.01019C66.5694 3.28633 66.3433 2.74102 65.3234 2.53351C64.3084 2.32601 52.912 0 52.912 0L52.9072 0Z" fill="#E6003F"/>
<path d="M99.0747 16.0504H102.981V32.9212H110.538V36H99.0747V16.0504Z" fill="#9EA3A6"/>
<path d="M113.583 15.0129H117.321V18.9603H113.583V15.0129ZM113.583 21.5904H117.321V36H113.583V21.5904Z" fill="#9EA3A6"/>
<path d="M120.424 21.5904H123.965V23.5496H124.023C125.196 21.8992 126.784 21.2574 128.737 21.2574C132.138 21.2574 133.62 23.6654 133.62 26.9083V36H129.882V28.303C129.882 26.5416 129.853 24.1625 127.457 24.1625C124.754 24.1625 124.167 27.1013 124.167 28.9496V36H120.429V21.5904H120.424Z" fill="#9EA3A6"/>
<path d="M136.665 15.0129H140.403V27.3523H140.461L144.925 21.5904H149.331L143.977 28.0279L150 36.0048H145.257L140.461 29.0075H140.403V36.0048H136.665V15.0129Z" fill="#9EA3A6"/>
<path d="M88.7415 27.4633V24.3555H96.145V27.4633H88.7415Z" fill="#E96600"/>
<path d="M71.8179 35.3147V16.4992H86.5047V20.3212H77.1577V24.2976H84.8354V27.5067H77.1577V31.4879H86.7693V35.3147H71.8179Z" fill="#E96600"/>
</g>
<defs>
<clipPath id="clip0_471_1104">
<rect width="150" height="36" fill="white"/>
</clipPath>
</defs>
</svg>
