<svg width="290" height="70" viewBox="0 0 290 70" fill="none" xmlns="http://www.w3.org/2000/svg">
<g clip-path="url(#clip0_2100_4106)">
<path d="M89.8618 44.5524C93.8796 44.5524 96.1117 45.1248 96.1768 47.8366C96.2047 49.3285 95.2003 51.0645 94.1028 51.9183C91.6475 53.8326 89.4897 54.039 77.9478 54.039H21.0285L32.031 7.70387H13.0114C11.7373 7.70387 11.2629 8.06982 10.8816 9.59931L0.455722 53.0256C-1.50669 61.6583 2.91106 69.5497 12.7603 69.5497H38.8669C45.4796 69.5497 54.3337 62.2682 57.9237 55.5403C58.119 55.1744 58.2492 54.9304 58.3981 54.6208C58.3981 54.6208 58.4725 54.5269 58.5004 54.6583C57.933 57.0698 55.9241 65.6181 55.5986 67.0162C55.1801 68.8366 56.1194 69.5216 56.9844 69.5216H85.072C108.891 69.5216 118.191 58.0832 119.01 44.3553C119.465 36.6422 114.629 31.6502 100.939 31.6502H90.4291C86.6903 31.6502 82.8678 30.4116 82.8678 27.3527C82.8678 24.2937 87.0251 21.6288 92.6705 21.6288H118.247C118.247 21.6288 120.479 12.5926 120.926 10.7065C121.474 8.33255 120.767 7.63818 119.047 7.63818H87.425C69.0658 7.63818 60.8162 20.0336 60.8162 28.8728C60.8162 37.7119 67.8846 44.5336 86.1136 44.5336H89.8432L89.8618 44.5524Z" fill="#003478"/>
<path d="M102.287 0H153.18L127.008 13.559C127.008 13.559 128.059 9.12064 128.375 7.79759C128.701 6.39008 128.263 5.32976 126.292 4.92627C124.329 4.52279 102.296 0 102.296 0L102.287 0Z" fill="#E6003F"/>
<path d="M191.544 31.209H199.096V64.0133H213.708V69.9999H191.544V31.209Z" fill="#9EA3A6"/>
<path d="M219.595 29.1919H226.821V36.8675H219.595V29.1919ZM219.595 41.9814H226.821V70.0002H219.595V41.9814Z" fill="#9EA3A6"/>
<path d="M232.82 41.9814H239.666V45.7911H239.777C242.046 42.582 245.116 41.334 248.892 41.334C255.467 41.334 258.332 46.0163 258.332 52.3219V70.0002H251.105V55.0337C251.105 51.6088 251.049 46.9828 246.418 46.9828C241.191 46.9828 240.056 52.6973 240.056 56.2911V70.0002H232.83V41.9814H232.82Z" fill="#9EA3A6"/>
<path d="M264.219 29.1919H271.445V53.1852H271.557L280.188 41.9814H288.707L278.356 54.4989L290 70.0096H280.83L271.557 56.4037H271.445V70.0096H264.219V29.1919Z" fill="#9EA3A6"/>
<path d="M171.567 53.4008V47.3579H185.88V53.4008H171.567Z" fill="#E96600"/>
<path d="M138.848 68.6673V32.0815H167.242V39.5132H149.171V47.2451H164.015V53.485H149.171V61.2263H167.754V68.6673H138.848Z" fill="#E96600"/>
</g>
<defs>
<clipPath id="clip0_2100_4106">
<rect width="290" height="70" fill="white"/>
</clipPath>
</defs>
</svg>
